<svg xmlns="http://www.w3.org/2000/svg" aria-hidden="true" style="position:absolute;width:0;height:0;overflow:hidden">
  <defs>
    <symbol id="icon-black-hearth" viewBox="0 0 33 32">
      <path d="M21.35.802c-.591-.393-1.337-.577-2.269-.486-1.47.144-2.888 1.234-4.151 2.863-1.259 1.624-2.343 3.757-3.151 5.931a28.244 28.244 0 0 0-1.069 3.568c.4.899.729 1.806.968 2.639.347 1.209.512 2.288.425 2.977-.043.338-.153.629-.384.765-.242.142-.543.075-.867-.126-.404-.25-.649-.744-.778-1.372-.13-.633-.148-1.43-.071-2.329.066-.773.203-1.627.402-2.523-.748-1.657-1.738-3.27-2.853-4.313-1.396-1.307-3.653-1.734-5.271-.819-1.598.904-2.646 3.167-1.515 7.397 1.088 4.072 4.326 7.69 7.523 10.355a38.63 38.63 0 0 0 3.75 2.758c.148-.121.302-.243.461-.364 1.358-1.033 3.171-2.097 5.28-3.08l.178-.082c.34-.488.67-.991.985-1.506 1.934-3.161 3.848-9.066 4.319-14.086.236-2.511.108-4.779-.543-6.366-.324-.791-.775-1.405-1.368-1.799zm-2.879 23.524c.247-.366.488-.74.72-1.12 1.961-3.206 3.887-9.155 4.361-14.211.237-2.526.114-4.851-.563-6.504-.34-.829-.823-1.497-1.477-1.932-.656-.436-1.472-.63-2.459-.534C17.461.18 15.978 1.351 14.699 3c-1.282 1.654-2.379 3.816-3.194 6.008a28.904 28.904 0 0 0-.994 3.236c-.739-1.562-1.69-3.06-2.761-4.063-1.473-1.379-3.867-1.849-5.615-.861-1.768 1-2.799 3.44-1.654 7.727 1.112 4.16 4.407 7.826 7.618 10.504a38.81 38.81 0 0 0 3.703 2.73c-.971.834-1.632 1.646-1.873 2.376-.141.429-.182.771-.092 1.008a.49.49 0 0 0 .249.277.712.712 0 0 0 .384.05c.274-.03.615-.17.998-.388.387-.221.83-.53 1.309-.914.393-.315.813-.681 1.248-1.092.599.315 1.059.517 1.323.59a.146.146 0 1 0 .078-.282c-.226-.063-.634-.239-1.178-.522a32.309 32.309 0 0 0 3.9-4.595c4.155-1.904 9.435-3.494 14.662-3.939 13.105-1.115 19.386.251 22.525 1.694 1.566.72 2.354 1.461 2.822 1.933l.099.1c.076.078.146.148.208.207.087.082.173.155.26.198a.361.361 0 0 0 .307.019.65.65 0 0 0 .256-.219.146.146 0 0 0-.231-.179c-.066.085-.109.116-.133.126-.014.006-.03.009-.068-.01a.855.855 0 0 1-.188-.148c-.059-.055-.122-.12-.196-.195l-.104-.105c-.484-.488-1.301-1.253-2.907-1.992-3.207-1.475-9.547-2.836-22.672-1.72-5.081.432-10.207 1.938-14.317 3.765zm-.858.717c-1.971.938-3.661 1.941-4.936 2.911-.131.1-.257.199-.379.297a27.772 27.772 0 0 0 1.681.991 31.773 31.773 0 0 0 3.634-4.2zm-3.857 4.411a27.994 27.994 0 0 1-1.695-1.006c-.991.84-1.631 1.629-1.852 2.302-.138.42-.148.677-.096.813a.196.196 0 0 0 .101.117.427.427 0 0 0 .226.024c.213-.023.512-.139.886-.352.37-.211.8-.51 1.271-.888.366-.293.755-.631 1.159-1.01zm-3.151-16.286a18.304 18.304 0 0 0-.311 2.088c-.075.884-.056 1.65.066 2.245.123.6.344.996.646 1.182.297.184.469.179.566.122.107-.063.201-.23.242-.549.079-.627-.071-1.657-.416-2.859a19.878 19.878 0 0 0-.792-2.228z"/>
    </symbol>
    <symbol id="icon-crown" viewBox="0 0 32 32">
      <path fill="#e90f5e" d="M19.882.966a.605.605 0 0 1 .042.051c.167.222.353.702.535 1.45.354 1.461.628 3.654.871 5.988.095.91.184 1.842.273 2.756.136 1.41.268 2.775.406 3.945.114.966.234 1.817.368 2.467.067.324.139.611.221.842.073.209.18.453.357.61.324.288.72.29 1.058.181.322-.104.65-.321.964-.578.634-.518 1.357-1.319 2.075-2.166.345-.406.681-.813 1.012-1.214a89.4 89.4 0 0 1 1.132-1.352c.571-.665 1.074-1.204 1.475-1.537.023.278.012.696-.041 1.251-.131 1.381-.491 3.385-.925 5.515-.394 1.938-.845 3.963-1.23 5.696l-.11.496c-.403 1.813-.725 3.278-.785 3.825-.029.267-.266.611-.947.948-.662.327-1.635.59-2.879.748-2.48.315-5.925.202-9.825-.532-3.05-.574-5.995-1.55-8.293-2.598-1.149-.524-2.128-1.062-2.874-1.57-.756-.516-1.221-.967-1.413-1.307v.001c.001 0-.015-.047-.024-.175a4.452 4.452 0 0 1 .007-.568 21.58 21.58 0 0 1 .222-1.856c.231-1.491.606-3.397 1.016-5.342.428-2.032.898-4.117 1.276-5.798.314-1.395.565-2.512.679-3.09l.084.11c.418.572.965 1.621 1.574 2.852.186.377.377.77.571 1.166.427.877.864 1.773 1.278 2.566.302.577.597 1.11.874 1.55.271.43.547.808.816 1.045.224.198.502.262.781.198.247-.057.466-.207.65-.371.371-.332.762-.874 1.159-1.52.802-1.306 1.722-3.202 2.651-5.191.291-.622.582-1.254.872-1.881.642-1.391 1.275-2.763 1.869-3.97.43-.874.836-1.653 1.204-2.28.374-.638.69-1.085.937-1.325a.856.856 0 0 1 .04-.036zm.039-.025-.004.001.004-.001zm10.695 11.182.001.002-.001-.002zm-7.033 6.25-.003-.006a1.122 1.122 0 0 1-.095-.216 5.971 5.971 0 0 1-.187-.719c-.125-.609-.241-1.428-.355-2.387a188.785 188.785 0 0 1-.401-3.907c-.088-.915-.179-1.854-.275-2.781-.242-2.327-.521-4.581-.893-6.114-.181-.748-.402-1.403-.698-1.796-.151-.2-.376-.407-.693-.443-.327-.037-.598.125-.798.32-.343.335-.712.877-1.092 1.524a38.224 38.224 0 0 0-1.237 2.341c-.6 1.218-1.241 2.608-1.886 4.005-.288.625-.577 1.251-.864 1.864-.931 1.995-1.831 3.844-2.6 5.097-.389.633-.721 1.075-.984 1.311a.81.81 0 0 1-.205.145c-.159-.149-.367-.421-.617-.818a22.052 22.052 0 0 1-.836-1.483c-.408-.781-.834-1.656-1.258-2.527l-.58-1.187c-.599-1.213-1.183-2.341-1.658-2.991a3.028 3.028 0 0 0-.373-.433c-.117-.107-.289-.237-.505-.271a.654.654 0 0 0-.373.049.708.708 0 0 0-.276.227c-.12.162-.181.368-.217.564-.095.517-.356 1.673-.691 3.162a439.57 439.57 0 0 0-1.286 5.842c-.411 1.949-.79 3.876-1.025 5.393a22.48 22.48 0 0 0-.232 1.943c-.016.259-.02.493-.006.69.012.178.042.393.138.565.301.541.922 1.096 1.709 1.633.802.547 1.831 1.11 3.014 1.649 2.366 1.079 5.384 2.079 8.509 2.667 3.972.747 7.518.871 10.118.54 1.296-.165 2.385-.446 3.177-.838.774-.383 1.384-.934 1.467-1.692.052-.479.356-1.869.768-3.722l.111-.498c.385-1.731.838-3.765 1.234-5.711.434-2.131.803-4.178.939-5.615.067-.704.084-1.319-.002-1.728-.038-.183-.123-.468-.371-.628-.314-.203-.634-.071-.817.054-.552.375-1.218 1.092-1.896 1.882-.365.425-.761.903-1.157 1.383-.335.406-.671.812-.99 1.187-.72.848-1.393 1.588-1.953 2.045-.283.231-.502.361-.657.411a.3.3 0 0 1-.126.021c-.006-.001-.009-.001-.014-.005z" style="fill:var(--color1, #e90f5e)"/>
    </symbol>
    <symbol id="icon-footer-facebook" viewBox="0 0 32 32">
      <path d="M31.467 16.095C31.467 7.501 24.542.534 16 .534S.533 7.501.533 16.095c0 7.767 5.656 14.205 13.05 15.372V20.593H9.656v-4.498h3.927v-3.428c0-3.9 2.309-6.054 5.842-6.054 1.692 0 3.462.304 3.462.304v3.83h-1.95c-1.921 0-2.521 1.199-2.521 2.43v2.919h4.29l-.686 4.498h-3.604v10.874c7.394-1.167 13.05-7.605 13.05-15.372z"/>
    </symbol>
    <symbol id="icon-footer-insta" viewBox="0 0 32 32">
      <path d="M15.999 7.955c-4.366 0-7.983 3.555-7.983 7.983s3.555 7.983 7.983 7.983c4.428 0 7.983-3.617 7.983-7.983s-3.617-7.983-7.983-7.983zm0 13.096c-2.806 0-5.114-2.308-5.114-5.114s2.308-5.114 5.114-5.114 5.114 2.308 5.114 5.114-2.308 5.114-5.114 5.114zM24.292 9.577a1.81 1.81 0 1 0 0-3.618 1.81 1.81 0 0 0 0 3.618z"/>
      <path d="M28.972 3.09C27.35 1.406 25.043.533 22.424.533H9.577C4.151.533.534 4.15.534 9.576v12.785c0 2.682.873 4.989 2.619 6.673 1.684 1.621 3.929 2.432 6.486 2.432h12.723c2.682 0 4.927-.873 6.548-2.432 1.684-1.622 2.557-3.929 2.557-6.611V9.576c0-2.619-.873-4.864-2.495-6.486zm-.249 19.334c0 1.933-.686 3.492-1.809 4.553s-2.682 1.622-4.553 1.622H9.638c-1.871 0-3.43-.561-4.553-1.622-1.123-1.123-1.684-2.682-1.684-4.615V9.577c0-1.871.561-3.43 1.684-4.553 1.06-1.06 2.682-1.622 4.553-1.622h12.847c1.871 0 3.43.561 4.553 1.684 1.06 1.123 1.684 2.682 1.684 4.49v12.847z"/>
    </symbol>
    <symbol id="icon-footer-whatsapp" viewBox="0 0 32 32">
      <path d="M16 .667C7.6.667.667 7.6.667 16c0 3.2.933 6.133 2.667 8.667l-1.733 5.2c-.133.267 0 .533.133.667.267.133.533.267.8.133l5.333-1.733c2.4 1.6 5.333 2.4 8.133 2.4 8.4 0 15.333-6.933 15.333-15.333S24.4.668 16 .668zm9.2 21.6c-.4 1.2-2 2.267-3.333 2.533-.267 0-.533.133-.933.133-1.067 0-2.4-.4-4.533-1.2-2.667-1.067-5.333-3.467-7.467-6.533l-.133-.133c-.8-1.067-2-2.933-2-4.933 0-2.267 1.2-3.467 1.6-4 .533-.533 1.2-.8 2-.8h.533c.667 0 1.067.267 1.467 1.067l.267.533c.4.933.933 2.4 1.067 2.667.267.533.267.933 0 1.333-.133.267-.267.533-.533.8-.133.133-.267.267-.267.4l-.4.4v.133c.4.667 1.2 1.867 2.267 2.8 1.467 1.333 2.533 1.733 3.067 2h.133c.133 0 .267.133.267 0 .267-.267.533-.8.933-1.2l.133-.133c.4-.533.933-.667 1.2-.667.133 0 .4 0 .533.133.133 0 .4.133 2.933 1.467l.267.133c.4.133.667.267.8.667.533.267.4 1.467.133 2.4z"/>
    </symbol>
    <symbol id="icon-hamburger" viewBox="0 0 55 32">
      <path d="M3.23 25.72h48.668a3.14 3.14 0 0 1 0 6.28H3.23a3.14 3.14 0 0 1 0-6.28zM3.23 0h48.668a3.14 3.14 0 0 1 0 6.28H3.23a3.14 3.14 0 0 1 0-6.28zM3.23 12.86h48.668a3.14 3.14 0 0 1 0 6.28H3.23a3.14 3.14 0 0 1 0-6.28z"/>
    </symbol>
    <symbol id="icon-lamp" viewBox="0 0 46 32">
      <path fill="#e90f5e" d="M29.468.861c2.845.518 5.303 2.368 6.442 4.605.765 1.502 1.353 3.133 1.364 4.851.011 1.707-.546 3.531-2.127 5.428-1.211 1.454-2.312 2.029-3.199 2.456l-.185.088c-.8.381-1.543.734-1.866 1.683-.109.32-.203.655-.292.974l-.096.34a11.17 11.17 0 0 1-.164.529c-.28.021-.554.041-.821.058-1.172.076-2.234.106-3.15.003-1.244-.14-2.055-.338-2.554-.619-.242-.136-.397-.286-.495-.448s-.153-.359-.158-.613a4.951 4.951 0 0 1 .066-.793l.003-.024c.038-.279.079-.589.06-.918-.039-.691-.335-1.4-1.229-2.247-.835-.79-2.245-2.27-2.788-4.3-.534-1.999-.245-4.601 2.459-7.696C23.425 1.143 26.641.345 29.467.86zm.65 20.895c.028-.09.054-.181.081-.271l.103-.363c.088-.313.174-.619.276-.919.223-.655.692-.88 1.568-1.301l.115-.055c.932-.449 2.135-1.079 3.439-2.643 1.682-2.019 2.306-4.004 2.293-5.891-.012-1.876-.653-3.622-1.442-5.171-1.247-2.448-3.9-4.429-6.953-4.985-3.073-.559-6.544.326-9.398 3.592-2.838 3.247-3.217 6.09-2.612 8.352.597 2.231 2.133 3.826 2.988 4.635.794.752.98 1.298 1.007 1.767a4.062 4.062 0 0 1-.06.822c-.036.266-.077.566-.07.888.007.355.087.68.262.97s.431.517.756.7c.634.358 1.573.566 2.826.707.982.111 2.098.076 3.277 0l.454-.031a1.608 1.608 0 0 1-.499.561c-.229.151-.535.243-.977.219-.482-.026-1.162-.135-1.93-.258h-.001c-.756-.121-1.586-.254-2.335-.319-.734-.063-1.454-.068-1.961.106-.261.09-.511.243-.655.504-.147.267-.144.575-.047.889.216.701.851 1.015 1.534 1.148.687.134 1.536.113 2.376.054.368-.026.73-.058 1.083-.089.479-.042.942-.083 1.383-.105a8.12 8.12 0 0 1 1.003.002c.293.023.514.072.666.14.632.287.835.986.634 1.531-.097.263-.285.474-.554.578s-.668.122-1.214-.097l-.472-.19c-1.107-.447-2.401-.97-3.525-1.217-.643-.141-1.274-.203-1.803-.083-.555.126-1.002.456-1.204 1.06-.18.538-.169 1.04.029 1.475.197.431.558.753 1 .972.876.433 2.136.5 3.437.192 1.244-.294 2.16-.37 2.683-.261.262.054.348.138.374.183.019.033.053.132-.053.369-.029.065-.113.173-.293.308a3.59 3.59 0 0 1-.715.397c-.602.261-1.419.484-2.376.59a11.01 11.01 0 0 1-6.671-1.392 56.562 56.562 0 0 1-3.21-2.018l-.458-.306c-.796-.532-1.548-1.035-2.283-1.477-1.758-1.056-3.465-1.791-5.601-1.816C2.997 24.17.786 25.904.079 26.827a.358.358 0 1 0 .57.435c.582-.76 2.586-2.372 5.735-2.336 1.956.022 3.534.689 5.239 1.713.719.432 1.454.924 2.25 1.455l.462.309a57.259 57.259 0 0 0 3.251 2.043 11.73 11.73 0 0 0 7.108 1.483c1.018-.112 1.907-.352 2.582-.645a4.29 4.29 0 0 0 .86-.481c.224-.168.417-.365.518-.589.152-.341.201-.704.02-1.019-.175-.304-.506-.455-.849-.527-.688-.143-1.738-.032-2.995.265-1.201.284-2.276.198-2.953-.137-.334-.165-.554-.381-.666-.627-.11-.241-.135-.552-.002-.95.111-.332.334-.51.683-.589.375-.085.882-.05 1.49.084 1.059.233 2.29.73 3.404 1.18l.48.193c.668.267 1.261.286 1.742.099s.806-.566.966-.998c.313-.847.01-1.968-1.01-2.431-.261-.118-.576-.176-.906-.202a8.646 8.646 0 0 0-1.095-.004c-.446.022-.943.065-1.44.109-.353.031-.705.062-1.041.085-.837.058-1.602.072-2.188-.043-.59-.115-.887-.335-.986-.655-.061-.197-.034-.29-.01-.333.026-.048.093-.114.26-.172.349-.12.932-.133 1.666-.07.719.062 1.522.19 2.285.313l.025.004c.742.119 1.457.233 1.98.262.568.031 1.033-.087 1.411-.337.374-.246.631-.599.824-.984.039-.077.075-.156.109-.237l.153-.012c.744-.057 1.507-.116 2.291-.155 2.577-.129 5.226-.04 7.568 1 2.117.94 3.438 2.282 4.229 3.386a8.69 8.69 0 0 1 .823 1.397 6.012 6.012 0 0 1 .212.518l.004.011.005.014.002.005a.359.359 0 0 0 .687-.209l-.343.104.343-.105v-.002l-.001-.003-.003-.011-.012-.036-.046-.129a7.124 7.124 0 0 0-.195-.461 9.425 9.425 0 0 0-.891-1.512c-.852-1.189-2.268-2.623-4.521-3.624-2.503-1.111-5.294-1.191-7.896-1.06-.724.037-1.445.09-2.143.144z" style="fill:var(--color1, #e90f5e)"/>
    </symbol>
    <symbol id="icon-logo" viewBox="0 0 46 32">
      <path d="M2.574 14.94a1.481 1.481 0 0 0-.711-.161H0v3.817h.848v-1.241h1.014c.275 0 .512-.052.711-.161.199-.107.351-.258.458-.45.105-.193.159-.419.159-.676s-.054-.484-.159-.676a1.099 1.099 0 0 0-.456-.45zm-.375 1.501a.524.524 0 0 1-.382.134H.848v-1.018h.969c.161 0 .288.044.382.134.092.09.139.216.139.375s-.046.285-.139.375zM5.824 15.806c-.242-.13-.524-.193-.848-.193s-.606.065-.848.193c-.242.13-.43.308-.565.536s-.201.496-.201.802c0 .301.066.567.201.8.135.23.323.41.565.54s.524.193.848.193c.323 0 .606-.065.848-.193a1.43 1.43 0 0 0 .567-.536c.137-.228.205-.494.205-.796 0-.308-.068-.578-.205-.806s-.323-.41-.567-.54zm-.163 1.776c-.061.121-.15.216-.264.283s-.253.098-.415.098a.854.854 0 0 1-.417-.098c-.116-.067-.207-.161-.27-.283s-.094-.268-.094-.438c0-.17.031-.316.094-.44s.153-.218.27-.285c.116-.067.257-.098.417-.098s.299.034.415.098c.114.067.203.161.264.285s.092.27.092.44a.97.97 0 0 1-.092.438zM9.453 17.224a1.01 1.01 0 0 0-.334-.115.752.752 0 0 0 .116-.04.696.696 0 0 0 .338-.262.665.665 0 0 0 .103-.354c0-.163-.055-.308-.166-.433s-.266-.224-.467-.297a2.046 2.046 0 0 0-.7-.109c-.303 0-.559.046-.774.14s-.379.218-.493.375a.957.957 0 0 0-.19.519h.8a.387.387 0 0 1 .194-.285.825.825 0 0 1 .43-.096c.161 0 .29.027.386.082s.144.132.144.235c0 .086-.041.155-.124.211s-.21.084-.384.084H7.88v.53h.462c.198 0 .34.023.428.069s.133.117.133.211c0 .115-.052.201-.155.255s-.249.082-.438.082c-.198 0-.355-.036-.469-.105s-.181-.17-.199-.304h-.803c.009.22.076.41.198.569s.292.283.51.366c.216.086.473.128.764.128.305 0 .565-.04.779-.119s.377-.191.489-.331a.736.736 0 0 0 .168-.475c-.002-.243-.098-.419-.294-.532zM10.999 16.401h1.28v2.194h.835v-2.9h-2.943v2.9H11v-2.194zM16.242 15.806a1.14 1.14 0 0 0-.661-.193 1.14 1.14 0 0 0-.644.191 1.48 1.48 0 0 0-.46.502v-.611h-.831v3.739h.831v-1.457c.124.216.277.387.46.509.19.128.404.191.644.191.251 0 .473-.065.661-.193.19-.13.338-.308.447-.536.107-.228.161-.496.161-.802s-.054-.572-.161-.802a1.3 1.3 0 0 0-.447-.538zm-.321 1.753a.693.693 0 0 1-.236.285c-.1.069-.216.105-.347.105s-.257-.036-.375-.105-.222-.165-.31-.285-.157-.26-.205-.415c.048-.155.116-.295.205-.415.089-.121.192-.216.31-.285s.244-.105.375-.105.247.036.347.105.179.165.236.285c.057.121.085.26.085.415a.956.956 0 0 1-.085.415zM19.596 15.695l-.065.613a1.472 1.472 0 0 0-.46-.502 1.135 1.135 0 0 0-.646-.191 1.15 1.15 0 0 0-.661.193c-.19.13-.34.308-.447.536s-.161.496-.161.802c0 .306.054.572.161.802.107.228.257.408.447.536.19.13.41.193.661.193.24 0 .454-.063.646-.191.183-.121.336-.293.46-.509l.066.618h.866l-.157-1.451.157-1.451h-.868v.002zm-.554 2.149c-.118.069-.244.105-.375.105s-.247-.036-.347-.105a.707.707 0 0 1-.236-.285c-.057-.121-.085-.26-.085-.415s.028-.295.085-.415a.693.693 0 0 1 .236-.285c.1-.069.216-.105.347-.105s.257.036.375.105.222.165.312.285c.09.121.157.26.201.415a1.282 1.282 0 0 1-.201.415 1.037 1.037 0 0 1-.312.285zM22.952 18.595c.279 0 .499-.073.661-.222a.762.762 0 0 0 .244-.592c0-.234-.079-.417-.24-.549a.892.892 0 0 0-.349-.165.852.852 0 0 0 .21-.132.655.655 0 0 0 .22-.511c0-.224-.074-.402-.22-.532s-.343-.197-.587-.197h-2.024l.153 1.451-.153 1.451 2.085-.002zm-.012-.676c-.054.054-.138.082-.257.082h-.966l.07-.62h.857c.131 0 .227.029.288.086.059.059.09.132.09.224a.325.325 0 0 1-.083.228zm-.148-1.549c.048.052.072.124.072.211s-.026.159-.079.211c-.052.052-.133.08-.24.08h-.763l-.065-.58h.849c.102-.002.177.025.225.077zM13.319 19.801h-.888l-1.235 1.717v-1.717h-.829v2.9h.74l.794-1.043.547 1.043h.947l-.964-1.738.888-1.162zM16.229 19.912a1.14 1.14 0 0 0-.661-.193 1.14 1.14 0 0 0-.644.191 1.46 1.46 0 0 0-.46.502v-.611h-.831v3.739h.831v-1.457c.124.216.277.387.46.509.19.128.404.191.644.191.251 0 .471-.065.661-.193.19-.13.34-.308.447-.536s.161-.496.161-.802c0-.306-.054-.572-.161-.802a1.315 1.315 0 0 0-.447-.538zm-.322 1.752a.693.693 0 0 1-.236.285c-.1.069-.216.105-.347.105s-.257-.036-.375-.105a1.032 1.032 0 0 1-.31-.285 1.387 1.387 0 0 1-.205-.415c.048-.155.116-.295.205-.415.089-.121.192-.216.31-.285s.244-.105.375-.105.247.036.347.105.179.165.236.285c.057.121.085.26.085.415a.956.956 0 0 1-.085.415zM18.075 21.825v-2.024h-.816v2.9h1.036l1.283-2.071v2.071h.822v-2.9h-1.073l-1.252 2.024zM21.425 20.479c.011.205.018.389.018.553 0 .35-.031.599-.096.75s-.172.226-.321.226a.708.708 0 0 1-.301-.071v.676c.081.054.164.092.249.115s.175.034.271.034c.334 0 .578-.126.728-.379s.225-.659.225-1.218a6.98 6.98 0 0 0-.017-.454l-.013-.201h1.084v2.192h.831v-2.9h-2.711c.02.247.039.473.052.678zM27.81 19.801h-.866l-.065.613a1.472 1.472 0 0 0-.46-.502 1.135 1.135 0 0 0-.646-.191 1.15 1.15 0 0 0-.661.193c-.19.13-.34.308-.447.536s-.161.496-.161.802c0 .306.054.572.161.802.107.228.257.408.447.536.19.13.41.193.661.193.24 0 .454-.063.646-.191.183-.121.336-.293.46-.509l.066.618h.866l-.157-1.451.155-1.449zm-1.42 2.148c-.118.069-.244.105-.375.105s-.247-.036-.347-.105a.707.707 0 0 1-.236-.285c-.057-.121-.085-.26-.085-.415s.028-.295.085-.415a.693.693 0 0 1 .236-.285c.1-.069.216-.105.347-.105s.257.036.375.105.222.165.312.285c.09.121.157.26.201.415a1.302 1.302 0 0 1-.201.415 1.061 1.061 0 0 1-.312.285z"/>
      <path d="M26.125 17.513a.246.246 0 0 1-.179-.077c-.098-.098-.914-1.041.307-4.055.153-.381.864-2.366-.312-4.011-.449-.628-1.03-.98-1.645-1.352-.947-.574-2.022-1.225-2.683-3.017-.325-.881-.412-1.874-.489-2.747-.061-.691-.129-1.472-.325-1.625-.015-.013-.061-.046-.192-.004-.467.151-1.152.881-1.558 1.981-.329.894-.713 2.743.419 5.077.066.136.133.266.199.389 1.226 1.172 2.201 1.407 2.801 1.551.29.069.499.119.654.247.19.155.277.377.227.597-.063.287-.332.49-.722.549-.318.044-1.896.124-3.366-2.544-.486-.473-1.006-1.087-1.555-1.878a.907.907 0 0 0-.157-.182c-.035.084-.087.301-.061.724.044.712.334 1.97 1.104 3.096.672.435 1.387.674 1.922.85.596.197.925.308 1.036.595a.51.51 0 0 1-.013.385.687.687 0 0 1-.452.394c-.534.147-1.372-.27-1.771-.601a6.06 6.06 0 0 1-1.073-1.16 4.822 4.822 0 0 1-1.029-.927c-.432-.521-.715-.712-.842-.764.011.18.127.634.591 1.47 1.003 1.805 3.108 3.011 5.778 3.31.146.017.251.163.236.329s-.142.285-.29.268c-2.834-.318-5.084-1.625-6.173-3.588-.678-1.221-.842-1.993-.491-2.303.362-.318.927.136 1.392.655-.425-1.101-.524-2.144-.428-2.697.081-.458.279-.603.43-.645.233-.063.469.077.704.417.138.199.275.387.408.563-.63-1.997-.277-3.578.03-4.411.491-1.336 1.33-2.142 1.9-2.326.244-.08.458-.05.633.084.401.308.469 1.082.554 2.06.072.833.155 1.777.451 2.575.589 1.597 1.49 2.142 2.445 2.72.635.385 1.291.783 1.808 1.503 1.064 1.489.894 3.371.382 4.637-1.051 2.596-.436 3.356-.428 3.364a.321.321 0 0 1 .018.419.23.23 0 0 1-.194.107zm-6.435-6.088c.375.281.977.528 1.265.45-.148-.067-.388-.147-.593-.216-.201-.069-.43-.144-.672-.234zm1.132-1.774c.691.655 1.272.762 1.499.777.24.015.395-.038.471-.084-.079-.048-.253-.09-.436-.134-.382-.092-.903-.218-1.534-.559zM37.692 25.558c-1.137 0-2.495-.232-3.723-.685-2.827-1.045-4.203-3.069-4.26-3.155-.089-.132-.065-.32.052-.421s.283-.073.371.059c.013.019 1.341 1.964 4.002 2.948 2.254.833 4.747.821 5.467.253.096-.075.148-.153.15-.228.007-.186-.345-.289-.966-.452-.395-.105-.89-.234-1.457-.454a7.753 7.753 0 0 1-2.075-.325c-1.224-.362-2.024-.923-2.48-1.327-.556-.494-.914-1.047-.96-1.474-.027-.266.065-.492.247-.605.545-.337 1.573.452 2.34 1.172 1.115 1.049 2.147 1.616 3.025 1.964h.068c2.295 0 3.994-1.103 4.352-1.704.046-.077.091-.184.063-.226-.177-.268-.606-.308-1.198-.362-.429-.04-.933-.086-1.498-.232a4.512 4.512 0 0 1-2.109-.115c-1.197-.354-2.098-1.022-2.188-1.625a.53.53 0 0 1 .186-.511c.499-.379 1.612.295 2.233.731a5.997 5.997 0 0 0 1.874.9c2.689-.553 4.956-3.607 5.643-5.682.271-.821.199-1.214.085-1.279-.604-.343-.909-.128-1.642.389-.606.427-1.437 1.011-2.82 1.482-2.114.72-3.82.17-5.626-.41-.87-.281-1.769-.569-2.773-.745-2.958-.515-4.053 1.007-4.064 1.022-.09.13-.257.153-.371.05s-.135-.291-.044-.421c.052-.073 1.3-1.811 4.559-1.244 1.038.18 1.954.475 2.838.76 1.804.582 3.362 1.082 5.329.415 1.317-.448 2.112-1.007 2.692-1.417.748-.528 1.289-.907 2.157-.415.266.151.641.613.173 2.027-.377 1.139-1.375 2.973-2.951 4.392-.525.473-1.18.959-1.939 1.302l.295.029c.703.065 1.258.117 1.579.601.079.119.233.45-.046.921-.401.676-1.677 1.516-3.383 1.834h.004c.781.207 1.399.371 1.374 1.061-.007.188-.078.461-.377.697-.432.335-1.241.505-2.209.505zm-5.355-5.351c-.006.32.849 1.654 3.052 2.307.107.031.214.061.319.088a10.737 10.737 0 0 1-1.643-1.281c-1.06-.997-1.592-1.141-1.728-1.114zm3.13-1.673c.12.218.622.731 1.771 1.07.17.05.34.088.508.115a7.08 7.08 0 0 1-.689-.429c-.909-.641-1.409-.762-1.59-.756z"/>
    </symbol>
    <symbol id="icon-plus" viewBox="0 0 31 32">
      <path d="M14.08 30.08a1.28 1.28 0 1 0 2.56 0V17.279h12.8a1.28 1.28 0 1 0 0-2.56h-12.8V1.92a1.28 1.28 0 1 0-2.56 0v12.799H1.28a1.28 1.28 0 1 0 0 2.56h12.8V30.08z"/>
    </symbol>
    <symbol id="icon-rocket" viewBox="0 0 22 32">
      <path  d="M18.8902 59.8078C18.8898 59.8082 18.8916 59.8039 18.8964 59.7944C18.8928 59.8027 18.8905 59.8074 18.8902 59.8078ZM18.944 59.7087C18.9527 59.6938 18.9627 59.677 18.974 59.6584C19.0582 59.5194 19.1883 59.3207 19.368 59.0602C19.7255 58.5421 20.2507 57.821 20.9301 56.9236C22.2871 55.1311 24.2391 52.6614 26.6493 49.7535C31.4699 43.9373 38.1085 36.3864 45.4642 29.0131C52.8259 21.6339 60.8758 14.463 68.5203 9.3831C68.8095 9.19092 69.0978 9.00197 69.385 8.81633C70.4935 12.2587 74.2086 18.527 81.9857 21.1485C86.0382 22.5146 89.2511 22.8188 91.6521 22.6106C92.6285 22.5259 93.4843 22.3548 94.2117 22.1289C93.5391 26.6901 92.3685 31.8016 90.8141 37.2287C85.4154 56.0784 75.499 78.3603 66.4541 93.7332C65.9993 93.8196 65.4901 93.9229 64.932 94.0362L64.9319 94.0363L64.9318 94.0363C62.0501 94.6213 57.8645 95.4711 53.1144 95.615C54.4137 93.0075 55.5718 90.653 56.51 88.7235C56.7706 88.1876 56.5522 87.5394 56.0222 87.2759C55.4922 87.0124 54.8513 87.2332 54.5907 87.7691C53.5336 89.9433 52.2047 92.6414 50.7143 95.6233C45.1905 95.4886 39.2468 94.2389 34.0604 90.5092C29.3099 87.093 25.9947 83.6031 23.6982 80.1776C25.1052 78.5512 26.3321 77.2259 27.2876 76.2597C27.7053 75.8373 27.7053 75.1526 27.2876 74.7303C26.87 74.308 26.1929 74.308 25.7753 74.7303C24.8892 75.6264 23.7796 76.8185 22.5145 78.2642C21.7089 76.8466 21.0673 75.4448 20.5592 74.0687C18.6307 68.8451 18.5931 63.9019 18.944 59.7087ZM96.6972 19.5387C96.9555 17.0957 97.0545 14.8191 96.9712 12.7503C96.837 9.41945 96.2274 6.52604 94.9634 4.33332C93.6724 2.09379 91.7171 0.625006 89.0583 0.19005C82.7545 -0.841174 75.0989 2.42345 67.3457 7.57558C60.3353 12.2342 53.043 18.5749 46.2691 25.1905C42.1249 25.8985 35.905 27.1902 30.5495 28.7979C27.8501 29.6082 25.3296 30.5108 23.396 31.4764C22.4306 31.9585 21.5748 32.4743 20.9083 33.0266C20.2585 33.565 19.6827 34.2248 19.4574 35.0223C19.1004 36.2859 19.2755 37.5844 19.704 38.7883C20.1323 39.9918 20.8362 41.1668 21.6347 42.2403C23.037 44.1258 24.8159 45.8111 26.2038 46.933C25.7947 47.4205 25.3966 47.8979 25.0101 48.3641C22.5838 51.2915 20.6115 53.7864 19.2318 55.6089C18.5428 56.519 17.9966 57.268 17.6139 57.8226C17.4235 58.0986 17.2663 58.3369 17.1504 58.5283C17.0929 58.6231 17.0382 58.7186 16.9927 58.8085C16.9616 58.8702 16.883 59.0268 16.8462 59.2127C16.8385 59.2515 16.833 59.2907 16.8295 59.3301C16.4487 63.7141 16.4396 69.0938 18.5556 74.8252C19.1841 76.5277 19.9972 78.2531 21.0364 79.9866C15.5181 86.5394 7.89355 96.9362 2.58956 108.4C1.47889 110.8 0.752018 112.66 0.360879 114.059C0.165452 114.757 0.0440468 115.375 0.00996739 115.908C-0.0230569 116.424 0.0183196 116.967 0.250889 117.437C0.514103 117.969 0.97239 118.307 1.52266 118.415C2.00852 118.511 2.49704 118.417 2.91011 118.283C3.74125 118.013 4.7098 117.431 5.70208 116.733C7.71478 115.316 10.1842 113.156 12.4992 111.095C12.8309 110.799 13.1592 110.506 13.4827 110.217L13.4831 110.217L13.4831 110.217C14.8905 108.961 16.2068 107.786 17.3172 106.858C16.3677 108.912 14.6931 111.969 12.7724 115.449L12.3803 116.159C10.4124 119.723 8.25006 123.64 6.44827 127.222C4.54559 131.005 2.97352 134.551 2.50877 136.948C2.44519 137.275 2.40818 137.612 2.43626 137.929C2.4634 138.234 2.56545 138.666 2.92063 138.998C3.30228 139.354 3.76519 139.403 4.10339 139.364C4.42476 139.326 4.72534 139.202 4.97485 139.074C5.93543 138.579 7.2734 137.394 8.77864 135.903C11.8579 132.853 16.1236 128.016 20.4422 123.115L20.5773 122.962C24.8708 118.089 29.212 113.163 32.5643 109.77C34.269 108.045 35.6631 106.773 36.6389 106.101C36.7508 106.024 36.8531 105.957 36.9461 105.901C36.9479 106.381 36.8891 107.03 36.7545 107.853C36.5518 109.093 36.2019 110.592 35.7605 112.241C34.9746 115.177 33.9203 118.509 32.9492 121.579L32.9488 121.58C32.8293 121.958 32.711 122.331 32.5947 122.7C31.5524 126.002 30.6274 128.991 30.4116 130.533C30.3617 130.89 30.3177 131.357 30.4263 131.756C30.4832 131.964 30.6389 132.361 31.0683 132.587C31.5166 132.823 31.9441 132.709 32.1694 132.611C32.5712 132.438 32.9239 132.07 33.2 131.751C33.5159 131.384 33.8873 130.888 34.3182 130.263C38.4924 124.202 46.3018 109.205 52.023 97.7979C52.3227 97.7961 52.6204 97.7914 52.9159 97.7841C57.9826 97.6579 62.5182 96.7351 65.4379 96.141L65.438 96.1409L65.4381 96.1409L65.4385 96.1408L65.4414 96.1403C66.1692 95.9921 66.7966 95.8645 67.3065 95.7748C67.613 95.7209 67.881 95.5348 68.0408 95.265C70.6542 90.852 73.3425 85.8614 75.9784 80.5369C78.576 81.3224 82.2495 82.1538 85.4382 82.2529C87.134 82.3055 88.8086 82.1562 90.1275 81.5957C91.5078 81.0091 92.5704 79.9249 92.716 78.2075C92.8558 76.5585 92.6803 74.0593 92.359 71.3018C92.0347 68.518 91.5507 65.3853 91.0415 62.4271C90.532 59.4673 89.9955 56.6723 89.5643 54.5608C89.3488 53.5053 89.159 52.6174 89.0114 51.9632C88.9378 51.6367 88.8737 51.364 88.8216 51.1557C88.7841 51.0061 88.7401 50.8359 88.6951 50.7054C90.2658 46.3227 91.6757 41.995 92.8685 37.8304C94.6065 31.7621 95.8948 26.002 96.5389 20.9014C96.9106 20.5396 96.9693 19.9665 96.6972 19.5387ZM27.5942 45.2879C32.0194 40.088 37.5368 33.9418 43.5513 27.8862C39.7913 28.6173 35.2112 29.6546 31.1582 30.8713C28.5044 31.668 26.1172 32.5297 24.3431 33.4156C23.4547 33.8593 22.7567 34.2911 22.2638 34.6995C21.7542 35.1218 21.5649 35.4359 21.5139 35.6165C21.3181 36.3093 21.3849 37.1244 21.7164 38.0559C22.0481 38.9878 22.6224 39.9702 23.344 40.9403C24.6345 42.6755 26.3081 44.255 27.5942 45.2879ZM85.5039 80.091C82.7017 80.004 79.4063 79.2899 76.9427 78.5693C80.669 70.889 84.2579 62.5944 87.3437 54.3857C87.3845 54.5824 87.4266 54.7867 87.4698 54.9982C87.8969 57.0898 88.4291 59.8625 88.9344 62.7981C89.44 65.7352 89.9169 68.8253 90.2349 71.5548C90.556 74.3105 90.7044 76.6148 90.585 78.0228C90.5233 78.7508 90.1364 79.2459 89.2989 79.6018C88.4 79.9838 87.0886 80.1403 85.5039 80.091ZM94.5301 19.6822C93.9354 19.9899 92.9363 20.3284 91.4693 20.4557C89.4051 20.6346 86.4861 20.3857 82.662 19.0967C75.2169 16.587 71.9571 10.3437 71.2712 7.63706C77.8991 3.63569 83.9294 1.54199 88.7167 2.32514C90.7044 2.65031 92.126 3.7058 93.1157 5.42257C94.1323 7.18615 94.707 9.68105 94.8342 12.8383C94.917 14.896 94.8085 17.192 94.5301 19.6822ZM22.2578 81.8744C16.8782 88.3278 9.60653 98.3375 4.52677 109.316C3.43512 111.676 2.76394 113.413 2.41894 114.647C2.24629 115.265 2.16511 115.722 2.14428 116.048C2.13891 116.132 2.13795 116.201 2.13941 116.258C2.17382 116.249 2.21287 116.237 2.25685 116.223C2.76774 116.057 3.5184 115.635 4.48013 114.958C6.37546 113.623 8.75334 111.548 11.0859 109.471C11.4109 109.182 11.7353 108.892 12.0573 108.605L12.0575 108.604L12.0581 108.604L12.0582 108.604L12.0589 108.603C14.0142 106.858 15.8812 105.191 17.2532 104.15C17.6512 103.848 18.0884 103.562 18.5144 103.453C18.7354 103.396 19.1106 103.346 19.4951 103.54C19.9211 103.754 20.108 104.137 20.1759 104.429C20.2384 104.697 20.2216 104.956 20.1953 105.148C20.1672 105.353 20.1156 105.567 20.0534 105.777C19.929 106.197 19.736 106.691 19.4989 107.233C18.5563 109.386 16.7015 112.768 14.6399 116.503L14.253 117.204L14.2527 117.205C12.2797 120.778 10.1367 124.659 8.35462 128.202C6.65056 131.591 5.33277 134.563 4.77963 136.627C5.40902 136.141 6.24958 135.381 7.28194 134.358C10.2969 131.371 14.5058 126.601 18.8454 121.676L19.0146 121.484L19.0153 121.483C23.2824 116.641 27.6556 111.678 31.0514 108.241C32.7609 106.511 34.2776 105.111 35.4346 104.313C35.9817 103.936 36.6001 103.584 37.1947 103.509C37.5219 103.467 37.9459 103.497 38.3315 103.768C38.7191 104.04 38.8987 104.436 38.9749 104.777C39.1758 105.677 39.0772 106.906 38.8647 108.206C38.645 109.549 38.2743 111.128 37.825 112.806C37.0254 115.793 35.9552 119.175 34.9863 122.238C34.8664 122.616 34.7482 122.99 34.6321 123.358C34.0642 125.157 33.5601 126.778 33.1841 128.1C37.2817 121.833 44.2728 108.437 49.6487 97.7487C44.1254 97.4822 38.1359 96.094 32.8209 92.2719C28.0967 88.8746 24.689 85.3688 22.2578 81.8744ZM4.56703 137.74L4.56715 137.741C4.56713 137.741 4.56708 137.741 4.567 137.74L4.56658 137.736L4.56703 137.74ZM18.0803 104.815C18.0804 104.815 18.0804 104.817 18.0801 104.82C18.0802 104.817 18.0803 104.815 18.0803 104.815ZM56.359 35.8249C58.9756 35.2412 61.6556 35.1454 63.8269 35.4724C64.411 35.5604 64.814 36.1106 64.727 36.7014C64.64 37.2921 64.096 37.6997 63.5118 37.6117C61.6238 37.3273 59.2077 37.4042 56.8197 37.937C54.428 38.4706 52.1494 39.4423 50.4755 40.8765C48.8259 42.2899 47.7627 44.1463 47.7088 46.5572C47.654 49.0087 48.6398 52.181 51.4171 56.1833C54.5803 60.7418 60.0487 62.335 65.2123 60.8518C70.3553 59.3745 75.2275 54.8143 76.9623 46.9615C77.3815 45.0637 76.9505 43.8137 76.1049 42.9207C75.1973 41.9622 73.6816 41.2783 71.7009 40.8751C67.7534 40.0716 62.5454 40.4982 58.6955 41.2711C58.1162 41.3874 57.5534 41.0068 57.4384 40.421C57.3234 39.8351 57.6997 39.266 58.279 39.1497C62.2597 38.3505 67.7828 37.8714 72.1229 38.7548C74.286 39.1951 76.3032 40.0028 77.6497 41.4248C79.0581 42.9123 79.6022 44.9318 79.0496 47.4331C77.157 56 71.7517 61.2218 65.7967 62.9323C59.8625 64.6369 53.4124 62.8239 49.6664 57.4257C46.7411 53.2102 45.5017 49.5879 45.5706 46.5083C45.6404 43.3881 47.0498 40.9769 49.0929 39.2263C51.1118 37.4965 53.7461 36.4079 56.359 35.8249Z" />
    </symbol>
    <symbol id="icon-star" viewBox="0 0 37 32">
      <path fill="#e90f5e" d="M21.374.694c.127.103.27.303.416.617.29.623.537 1.571.742 2.684.408 2.217.628 4.991.705 6.871l.017.408.386-.131c1.466-.496 4.106-1.034 6.586-1.328 1.238-.147 2.426-.231 3.4-.221a8.95 8.95 0 0 1 1.264.089c.356.056.606.135.758.226.235.14.305.285.312.431.008.173-.071.416-.289.737-.433.639-1.302 1.425-2.461 2.289-2.306 1.72-5.641 3.666-8.536 5.273l-.275.153.16.271c1.006 1.707 2.492 4.378 3.678 6.841.594 1.232 1.109 2.405 1.452 3.377.172.486.298.915.37 1.272.074.364.084.622.051.782-.005.025-.011.035-.013.037l-.001.001c-.004.002-.037.019-.129.013-.192-.014-.495-.117-.91-.328-.816-.415-1.924-1.175-3.157-2.113-2.46-1.872-5.357-4.41-7.274-6.177l-.185-.171-.202.149c-1.898 1.399-4.845 3.496-7.512 5.243-1.334.874-2.594 1.657-3.616 2.221a14.46 14.46 0 0 1-1.322.659c-.376.158-.625.222-.756.222h-.009a.301.301 0 0 1-.016-.072c-.018-.156.018-.425.13-.813.221-.762.689-1.836 1.291-3.05 1.201-2.42 2.901-5.329 4.101-7.271l.226-.365-.418-.095c-1.798-.407-3.955-.973-5.796-1.602-.921-.315-1.757-.644-2.427-.974-.681-.336-1.153-.656-1.386-.938a.486.486 0 0 1-.115-.227.348.348 0 0 1 .032-.199c.074-.165.267-.37.621-.598.699-.45 1.865-.889 3.306-1.273 2.871-.767 6.715-1.288 9.772-1.288h.2l.08-.184c.853-1.963 2.089-4.71 3.319-7.044.616-1.168 1.226-2.226 1.783-3.029.279-.402.54-.734.777-.982.242-.253.439-.397.587-.455.091-.036.172-.028.282.061zm2.455 9.745c-.091-1.875-.31-4.454-.697-6.555-.207-1.124-.465-2.135-.789-2.831-.16-.345-.351-.644-.585-.835-.251-.204-.56-.284-.888-.156-.272.106-.543.327-.806.601a8.87 8.87 0 0 0-.838 1.056c-.578.833-1.201 1.916-1.821 3.093-1.203 2.284-2.409 4.95-3.26 6.903-3.078.022-6.871.545-9.729 1.308-1.455.389-2.697.847-3.478 1.35-.386.248-.701.533-.849.863a.954.954 0 0 0-.078.546c.03.189.118.362.247.519.321.39.895.757 1.588 1.099.703.346 1.566.685 2.5 1.004 1.728.59 3.721 1.123 5.442 1.524-1.186 1.938-2.765 4.66-3.905 6.956-.605 1.219-1.094 2.333-1.331 3.152-.116.402-.184.771-.15 1.056a.742.742 0 0 0 .18.427.6.6 0 0 0 .452.185c.265 0 .612-.111.992-.27.392-.165.86-.4 1.38-.687 1.042-.574 2.317-1.367 3.656-2.244 2.586-1.694 5.43-3.714 7.337-5.114 1.922 1.764 4.73 4.215 7.133 6.044 1.238.942 2.383 1.73 3.25 2.172.427.217.822.369 1.142.393a.814.814 0 0 0 .492-.101.65.65 0 0 0 .294-.435c.06-.284.029-.642-.05-1.03-.08-.395-.216-.854-.393-1.354-.354-1.002-.88-2.198-1.478-3.439-1.135-2.356-2.538-4.895-3.543-6.615 2.832-1.578 6.062-3.473 8.331-5.165 1.165-.869 2.107-1.706 2.602-2.437.246-.364.41-.742.393-1.109-.018-.395-.239-.709-.61-.929-.251-.149-.592-.244-.975-.304a9.683 9.683 0 0 0-1.352-.097c-1.01-.011-2.226.076-3.479.225-2.303.273-4.762.756-6.325 1.233z" style="fill:var(--color1, #e90f5e)"/>
    </symbol>
    <symbol id="icon-starts" viewBox="0 0 58 32">
      <path fill="#fff" d="M51.607 5.161c-.203-.926-.51-2.123-.859-3.098-.199-.556-.419-1.064-.653-1.408-.115-.169-.253-.329-.419-.424a.603.603 0 0 0-.623-.005c-.159.094-.295.251-.41.418-.12.174-.237.388-.352.627-.229.479-.46 1.087-.68 1.739-.413 1.226-.797 2.635-1.069 3.688-1.558.275-3.409.847-4.783 1.463-.712.319-1.325.663-1.701.999-.184.165-.348.361-.408.585a.642.642 0 0 0 .008.373.711.711 0 0 0 .214.312c.222.195.573.342.957.459.395.121.87.223 1.375.308a29.79 29.79 0 0 0 2.696.311c-.433 1.066-.968 2.478-1.337 3.668-.208.67-.368 1.288-.424 1.738-.027.217-.035.437.015.611a.54.54 0 0 0 .182.283c.114.088.248.107.366.088.169-.027.36-.128.541-.241.193-.12.416-.282.66-.473a30.898 30.898 0 0 0 1.685-1.45 92.057 92.057 0 0 0 3.23-3.118c1.121.732 2.698 1.707 4.035 2.417.709.377 1.368.688 1.86.845.239.076.477.129.675.112a.581.581 0 0 0 .331-.129.492.492 0 0 0 .168-.357c.008-.182-.046-.386-.12-.582a5.493 5.493 0 0 0-.321-.675 18.664 18.664 0 0 0-1.045-1.639 51.644 51.644 0 0 0-2.255-2.953c1.281-1.015 2.715-2.205 3.705-3.226.523-.539.95-1.058 1.154-1.496.101-.217.169-.46.12-.694-.055-.262-.239-.439-.483-.536a1.603 1.603 0 0 0-.58-.085 5.188 5.188 0 0 0-.72.064c-.524.079-1.143.226-1.772.406-1.068.305-2.193.714-2.964 1.073zM49.361.776l.003.001c.043.024.116.091.211.231.187.275.386.721.581 1.266.387 1.082.726 2.465.919 3.41l.084.411.371-.196c.692-.366 1.981-.854 3.214-1.207a14.173 14.173 0 0 1 1.693-.389c.244-.037.456-.056.628-.057.179-.001.289.019.346.041.089.035.096.066.098.078v.001c.008.038.004.131-.075.3-.156.335-.517.789-1.035 1.323-1.024 1.056-2.555 2.314-3.896 3.37l-.254.2.207.248a51.79 51.79 0 0 1 2.429 3.16c.403.575.758 1.123 1.009 1.581.126.229.222.43.284.595.034.089.055.161.067.216a1.865 1.865 0 0 1-.341-.082c-.435-.139-1.052-.428-1.756-.802-1.401-.744-3.08-1.791-4.2-2.529l-.216-.142-.181.185a92.145 92.145 0 0 1-3.387 3.278 30.384 30.384 0 0 1-1.649 1.419 7.146 7.146 0 0 1-.605.434c-.065.04-.119.071-.163.094 0-.057.005-.132.016-.225.048-.391.194-.964.4-1.628.41-1.322 1.033-2.935 1.484-4.018l.169-.408-.441-.027a30.412 30.412 0 0 1-3.067-.333c-.492-.083-.937-.18-1.297-.29-.371-.113-.611-.229-.725-.33a.151.151 0 0 1-.027-.029l-.004-.006v-.002s0-.005.003-.014c.012-.046.066-.14.22-.279.3-.269.839-.581 1.537-.893 1.386-.621 3.288-1.2 4.831-1.45l.203-.033.051-.2c.272-1.067.674-2.559 1.106-3.841a15.24 15.24 0 0 1 .651-1.668c.107-.223.208-.405.303-.542a.896.896 0 0 1 .2-.226zM49.349.77zm-5.587 16.59-.001-.001.001.001zm12.586-1.998h-.001.001zM24.547 16.872c-.238-1.081-.597-2.477-1.004-3.614-.233-.649-.49-1.242-.764-1.643-.135-.197-.296-.383-.489-.494a.704.704 0 0 0-.728-.006c-.186.109-.345.292-.48.488-.14.203-.277.452-.412.732-.268.559-.538 1.269-.795 2.029-.483 1.431-.932 3.074-1.25 4.303-1.822.321-3.987.988-5.594 1.706-.833.372-1.55.773-1.989 1.166-.215.192-.407.421-.477.682a.755.755 0 0 0 .009.436.83.83 0 0 0 .25.364c.26.228.67.399 1.119.536.462.141 1.017.26 1.608.36 1.008.17 2.145.289 3.153.363-.506 1.244-1.133 2.891-1.564 4.28-.243.782-.431 1.503-.496 2.028-.031.253-.04.51.018.713.03.105.09.235.212.33.134.103.29.125.428.102.197-.032.421-.15.632-.281.225-.14.487-.329.772-.551a35.816 35.816 0 0 0 1.971-1.692 108.68 108.68 0 0 0 3.777-3.638c1.311.853 3.155 1.991 4.719 2.82.829.44 1.599.803 2.175.986.279.089.559.151.79.131a.679.679 0 0 0 .387-.151.574.574 0 0 0 .197-.417c.01-.212-.054-.45-.141-.679a6.577 6.577 0 0 0-.375-.788 21.74 21.74 0 0 0-1.222-1.912 60.105 60.105 0 0 0-2.637-3.446c1.498-1.184 3.175-2.573 4.334-3.764.611-.629 1.111-1.234 1.349-1.745.118-.253.198-.537.141-.81-.064-.305-.279-.512-.565-.625-.196-.077-.436-.1-.678-.099a5.967 5.967 0 0 0-.841.075c-.613.092-1.337.264-2.073.474-1.249.356-2.565.833-3.467 1.251zm-2.627-5.116.003.002c.05.028.135.106.247.27.219.321.451.841.679 1.477.452 1.263.849 2.876 1.075 3.978l.099.48.434-.229c.809-.427 2.316-.996 3.758-1.408.719-.205 1.41-.368 1.98-.454a5.26 5.26 0 0 1 .735-.067c.209-.001.338.022.405.048.105.041.112.077.114.091v.002c.009.044.005.153-.087.35-.182.39-.605.921-1.21 1.544-1.198 1.232-2.987 2.7-4.556 3.931l-.297.233.242.29a60.1 60.1 0 0 1 2.84 3.687c.471.671.886 1.31 1.18 1.844.147.267.259.501.332.695.039.104.064.187.078.252a2.235 2.235 0 0 1-.399-.095c-.509-.162-1.23-.499-2.053-.935-1.638-.868-3.602-2.09-4.912-2.95l-.253-.166-.212.216a108.79 108.79 0 0 1-3.96 3.824 35.9 35.9 0 0 1-1.929 1.656 8.55 8.55 0 0 1-.708.507 2.993 2.993 0 0 1-.191.11c0-.067.006-.153.019-.262.056-.456.227-1.124.468-1.9.479-1.542 1.209-3.424 1.735-4.688l.198-.476-.515-.032c-1.106-.068-2.438-.194-3.587-.388a12.519 12.519 0 0 1-1.516-.338c-.434-.132-.714-.267-.848-.385a.213.213 0 0 1-.032-.034l-.005-.007v-.002s0-.006.003-.017c.014-.053.077-.164.258-.325.351-.314.982-.677 1.798-1.042 1.621-.725 3.845-1.4 5.649-1.692l.238-.038.06-.233c.318-1.244.788-2.986 1.294-4.481.253-.749.512-1.426.761-1.946.125-.26.244-.473.354-.632.105-.151.185-.23.234-.263zm-.015-.007zm-6.533 19.355-.001-.002a.003.003 0 0 1 .001.002zm14.719-2.331h-.001.001zM8.285 7.467a18.051 18.051 0 0 0-.553-1.97c-.134-.376-.286-.727-.451-.97a1.01 1.01 0 0 0-.315-.316.506.506 0 0 0-.522-.003 1.038 1.038 0 0 0-.308.311 3.34 3.34 0 0 0-.245.435c-.157.327-.313.741-.461 1.18a37.15 37.15 0 0 0-.704 2.421c-1.042.19-2.261.57-3.173.978-.481.216-.905.452-1.169.689-.128.115-.257.263-.305.443a.539.539 0 0 0 .007.31.594.594 0 0 0 .173.255c.167.147.421.25.681.33.271.083.595.152.937.21.537.091 1.135.156 1.68.199-.281.7-.614 1.587-.849 2.342-.14.451-.25.874-.289 1.186-.018.148-.026.313.014.452.021.072.064.17.158.243.104.08.224.096.326.079.136-.022.28-.1.401-.176.134-.083.287-.195.452-.324a20.9 20.9 0 0 0 1.139-.979 61.413 61.413 0 0 0 2.115-2.039c.75.487 1.774 1.118 2.649 1.583.477.254.927.467 1.267.575.163.052.34.093.494.08a.491.491 0 0 0 .28-.111.434.434 0 0 0 .149-.313 1.115 1.115 0 0 0-.087-.432 3.78 3.78 0 0 0-.222-.467 12.64 12.64 0 0 0-.708-1.111 34.59 34.59 0 0 0-1.454-1.91c.84-.668 1.768-1.442 2.418-2.112.352-.363.65-.722.795-1.033.071-.154.128-.342.088-.531a.599.599 0 0 0-.388-.435 1.18 1.18 0 0 0-.428-.064c-.15.001-.319.017-.498.044a9.898 9.898 0 0 0-1.204.276c-.668.191-1.373.443-1.89.673zm-1.579-2.66a.645.645 0 0 1 .055.074c.118.174.248.463.379.828.258.721.484 1.645.614 2.277l.084.411.371-.196c.456-.241 1.315-.567 2.14-.803.411-.117.803-.21 1.125-.258.161-.024.298-.037.407-.037a.595.595 0 0 1 .194.02v-.001.001a.518.518 0 0 1-.04.115c-.097.208-.329.503-.676.861-.683.704-1.706 1.546-2.608 2.255l-.254.2.207.248a34.563 34.563 0 0 1 1.627 2.117c.269.385.506.75.672 1.053.075.137.133.257.173.356a1.093 1.093 0 0 1-.044-.014c-.283-.09-.691-.281-1.163-.531a38.484 38.484 0 0 1-2.814-1.694l-.216-.142-.181.185a62.106 62.106 0 0 1-2.271 2.199c-.407.371-.79.704-1.102.948-.126.099-.237.18-.332.243a7.39 7.39 0 0 1 .258-1.021c.274-.884.692-1.965.994-2.691l.169-.408-.441-.027a20.487 20.487 0 0 1-2.05-.222 7.14 7.14 0 0 1-.858-.192 1.667 1.667 0 0 1-.411-.172.68.68 0 0 1 .091-.096c.189-.17.54-.374 1.007-.583.924-.414 2.192-.8 3.22-.967l.203-.033.051-.2c.183-.716.452-1.716.741-2.574.145-.43.292-.816.433-1.109.07-.147.136-.264.195-.35a.874.874 0 0 1 .052-.069z" style="fill:var(--color2, #fff)"/>
    </symbol>
  </defs>
</svg>
