<svg width="565" height="547" viewBox="0 0 565 547" fill="none" xmlns="http://www.w3.org/2000/svg">
<path fill-rule="evenodd" clip-rule="evenodd" d="M364.951 13.7037C354.842 6.98013 342.093 3.83534 326.166 5.39101C301.033 7.84574 276.794 26.493 255.212 54.3315C233.694 82.088 215.16 118.549 201.356 155.712C193.697 176.331 187.511 197.117 183.081 216.695C189.926 232.06 195.537 247.559 199.62 261.805C205.546 282.478 208.376 300.918 206.883 312.685C206.15 318.46 204.273 323.443 200.313 325.762C196.183 328.182 191.032 327.042 185.489 323.615C178.581 319.344 174.388 310.89 172.186 300.155C169.967 289.34 169.661 275.709 170.973 260.348C172.102 247.129 174.437 232.539 177.839 217.222C165.06 188.894 148.123 161.329 129.074 143.491C105.215 121.148 66.6319 113.843 38.9776 129.484C11.6669 144.931 -6.24372 183.624 13.0788 255.927C31.6794 325.528 87.0318 387.372 141.671 432.939C164.098 451.643 186.346 467.555 205.772 480.086C208.295 478.015 210.927 475.937 213.66 473.857C236.872 456.194 267.859 438.017 303.915 421.202C304.923 420.732 305.935 420.263 306.951 419.795C312.766 411.453 318.408 402.855 323.79 394.059C356.855 340.021 389.57 239.082 397.622 153.28C401.651 110.352 399.466 71.5853 388.343 44.4607C382.798 30.9386 375.088 20.4459 364.951 13.7037ZM315.74 415.818C319.963 409.556 324.08 403.166 328.055 396.669C361.583 341.873 394.49 240.173 402.6 153.747C406.653 110.562 404.555 70.8186 392.969 42.5637C387.159 28.3962 378.908 16.9818 367.72 9.54051C356.504 2.08069 342.563 -1.23436 325.68 0.414687C298.47 3.07235 273.117 23.075 251.26 51.2681C229.34 79.5433 210.589 116.496 196.669 153.971C189.759 172.573 184.025 191.342 179.68 209.289C167.046 182.592 150.794 156.981 132.492 139.842C107.32 116.269 66.39 108.236 36.5161 125.132C6.29874 142.223 -11.3345 183.941 8.24829 257.218C27.2519 328.327 83.573 390.998 138.469 436.779C160.567 455.209 182.492 470.948 201.764 483.448C185.159 497.699 173.86 511.577 169.745 524.066C167.331 531.394 166.635 537.244 168.169 541.299C168.984 543.45 170.424 545.082 172.433 546.037C174.373 546.96 176.633 547.154 178.994 546.894C183.671 546.379 189.506 543.995 196.062 540.255C202.676 536.481 210.245 531.196 218.441 524.638C225.165 519.257 232.338 512.995 239.782 505.969C250.015 511.358 257.889 514.811 262.393 516.059C263.724 516.428 265.101 515.648 265.47 514.318C265.839 512.987 265.059 511.61 263.728 511.241C259.863 510.17 252.883 507.149 243.599 502.322C265.249 481.385 288.888 454.287 310.271 423.772C381.302 391.218 471.553 364.04 560.897 356.441C784.918 337.387 892.277 360.725 945.939 385.402C972.708 397.711 986.18 410.383 994.181 418.437C994.765 419.025 995.328 419.597 995.87 420.148C997.176 421.474 998.361 422.677 999.419 423.679C1000.9 425.081 1002.37 426.321 1003.86 427.059C1005.48 427.858 1007.26 428.129 1009.11 427.378C1010.78 426.702 1012.19 425.318 1013.48 423.642C1014.32 422.549 1014.12 420.979 1013.03 420.136C1011.93 419.292 1010.36 419.494 1009.52 420.588C1008.4 422.045 1007.66 422.572 1007.24 422.743C1007 422.841 1006.72 422.897 1006.07 422.577C1005.3 422.196 1004.3 421.413 1002.86 420.048C1001.86 419.109 1000.78 418.003 999.503 416.711C998.949 416.148 998.36 415.549 997.728 414.913C989.448 406.578 975.497 393.491 948.028 380.859C893.213 355.652 784.835 332.376 560.474 351.459C473.614 358.847 386 384.584 315.74 415.818ZM301.066 428.072C267.367 444.114 238.48 461.253 216.688 477.836C214.449 479.54 212.288 481.235 210.208 482.92C212.853 484.594 215.439 486.201 217.959 487.739C225.667 492.446 232.729 496.496 238.951 499.857C258.975 480.636 280.853 455.952 301.066 428.072ZM235.135 503.475C229.151 500.209 222.502 496.371 215.353 492.007C212.376 490.189 209.307 488.276 206.159 486.273C189.213 500.623 178.286 514.12 174.494 525.631C172.128 532.814 171.965 537.203 172.846 539.529C173.239 540.568 173.825 541.163 174.58 541.522C175.405 541.914 176.647 542.122 178.447 541.924C182.09 541.523 187.205 539.551 193.584 535.912C199.904 532.306 207.254 527.186 215.317 520.734C221.569 515.73 228.225 509.945 235.135 503.475ZM181.274 225.09C178.696 237.725 176.896 249.75 175.955 260.773C174.665 275.88 174.998 288.983 177.084 299.15C179.186 309.398 182.964 316.175 188.119 319.362C193.192 322.499 196.128 322.42 197.786 321.448C199.615 320.377 201.23 317.518 201.923 312.055C203.282 301.345 200.702 283.724 194.814 263.182C191.343 251.072 186.764 238.088 181.274 225.09Z" fill="black"/>
</svg>
