<svg width="256" height="302" viewBox="0 0 256 302" fill="none" xmlns="http://www.w3.org/2000/svg">
<path fill-rule="evenodd" clip-rule="evenodd" d="M201.911 7.56587C196.318 3.85375 189.265 2.1175 180.453 2.97639C166.548 4.33165 153.137 14.6269 141.197 29.9966C129.292 45.321 119.038 65.4511 111.401 85.9691C107.164 97.3526 103.741 108.829 101.29 119.638C105.077 128.121 108.182 136.678 110.441 144.543C113.719 155.957 115.285 166.138 114.459 172.634C114.054 175.822 113.015 178.574 110.824 179.854C108.539 181.19 105.689 180.561 102.623 178.669C98.8009 176.31 96.4809 171.643 95.2625 165.716C94.0348 159.745 93.8657 152.22 94.5915 143.739C95.2161 136.441 96.5079 128.386 98.39 119.929C91.3202 104.289 81.9496 89.0704 71.4109 79.2218C58.2105 66.8859 36.8644 62.8532 21.5646 71.4886C6.45474 80.0167 -3.45436 101.379 7.23591 141.298C17.5268 179.725 48.1507 213.869 78.3801 239.027C90.7881 249.353 103.097 258.138 113.844 265.057C115.24 263.913 116.696 262.766 118.209 261.618C131.05 251.866 148.194 241.83 168.143 232.547C168.7 232.287 169.26 232.028 169.822 231.77C173.039 227.164 176.161 222.417 179.138 217.561C197.431 187.727 215.531 131.998 219.986 84.6264C222.215 60.9255 221.006 39.5225 214.852 24.5469C211.785 17.0813 207.519 11.2883 201.911 7.56587ZM174.685 229.574C177.021 226.117 179.298 222.589 181.498 219.002C200.047 188.749 218.253 132.6 222.74 84.8843C224.983 61.0417 223.822 39.0991 217.412 23.4995C214.198 15.6776 209.633 9.37567 203.443 5.26734C197.237 1.14875 189.525 -0.681492 180.184 0.22895C165.13 1.69625 151.103 12.7398 139.011 28.3052C126.883 43.916 116.509 64.3176 108.808 85.0079C104.985 95.278 101.812 105.64 99.409 115.549C92.419 100.809 83.4275 86.6694 73.3018 77.2069C59.3751 64.1923 36.7306 59.7573 20.2027 69.0858C3.4848 78.5215 -6.27086 101.554 4.5634 142.011C15.0772 181.27 46.2371 215.871 76.6084 241.147C88.8345 251.322 100.964 260.012 111.627 266.913C102.44 274.781 96.1886 282.443 93.9123 289.338C92.5769 293.384 92.1913 296.614 93.0404 298.852C93.491 300.04 94.2877 300.941 95.3995 301.469C96.4728 301.978 97.7232 302.085 99.0291 301.942C101.617 301.657 104.845 300.341 108.472 298.276C112.131 296.192 116.319 293.275 120.853 289.654C124.573 286.683 128.542 283.226 132.661 279.347C138.322 282.322 142.678 284.229 145.17 284.918C145.906 285.121 146.668 284.691 146.872 283.956C147.076 283.221 146.645 282.461 145.909 282.257C143.771 281.666 139.909 279.998 134.772 277.333C146.75 265.774 159.829 250.813 171.659 233.966C210.957 215.992 260.889 200.988 310.319 196.792C434.259 186.272 493.656 199.157 523.345 212.781C538.155 219.577 545.608 226.573 550.035 231.02C550.358 231.345 550.67 231.661 550.97 231.965C551.692 232.697 552.347 233.361 552.933 233.914C553.752 234.688 554.563 235.373 555.39 235.781C556.284 236.221 557.27 236.371 558.296 235.957C559.221 235.583 559.996 234.819 560.712 233.894C561.178 233.29 561.067 232.424 560.462 231.958C559.857 231.492 558.988 231.604 558.522 232.208C557.9 233.012 557.494 233.303 557.259 233.398C557.126 233.452 556.974 233.483 556.615 233.306C556.189 233.095 555.633 232.663 554.835 231.91C554.286 231.391 553.684 230.781 552.98 230.067C552.673 229.756 552.347 229.426 551.998 229.075C547.416 224.473 539.698 217.247 524.501 210.273C494.174 196.357 434.213 183.506 310.084 194.042C262.029 198.12 213.556 212.33 174.685 229.574ZM166.566 236.339C147.922 245.197 131.94 254.659 119.884 263.814C118.645 264.755 117.449 265.691 116.298 266.622C117.762 267.546 119.193 268.433 120.587 269.282C124.851 271.881 128.758 274.117 132.201 275.973C143.279 265.36 155.383 251.732 166.566 236.339ZM130.089 277.97C126.779 276.167 123.1 274.048 119.145 271.638C117.498 270.634 115.8 269.579 114.058 268.472C104.683 276.395 98.6377 283.847 96.5398 290.202C95.2306 294.168 95.1405 296.591 95.6276 297.875C95.8452 298.449 96.1696 298.777 96.5873 298.976C97.0434 299.192 97.7309 299.307 98.7265 299.198C100.742 298.976 103.572 297.888 107.101 295.878C110.598 293.887 114.664 291.061 119.125 287.498C122.584 284.736 126.267 281.542 130.089 277.97ZM100.291 124.273C98.8644 131.249 97.8686 137.888 97.3478 143.974C96.634 152.314 96.8183 159.548 97.9723 165.162C99.1356 170.82 101.226 174.561 104.078 176.321C106.884 178.053 108.508 178.009 109.426 177.472C110.438 176.881 111.331 175.303 111.715 172.286C112.466 166.373 111.039 156.645 107.782 145.304C105.861 138.617 103.328 131.449 100.291 124.273Z" fill="black"/>
</svg>
