<svg width="170" height="170" viewBox="0 0 170 170" fill="none" xmlns="http://www.w3.org/2000/svg">
<path fill-rule="evenodd" clip-rule="evenodd" d="M105.622 5.13435C105.564 5.18101 105.494 5.24269 105.411 5.32375C104.101 6.60128 102.422 8.97761 100.435 12.3647C98.4786 15.7 96.325 19.8347 94.0384 24.4799C90.882 30.8924 87.5186 38.1809 84.1078 45.5722C82.569 48.9067 81.0206 52.2623 79.4772 55.5675C74.5427 66.1352 69.6508 76.2096 65.3927 83.1472C63.2854 86.5806 61.2087 89.457 59.2373 91.2231C58.26 92.0986 57.0992 92.8948 55.7865 93.1961C54.3069 93.5357 52.8305 93.1949 51.6383 92.1432C50.2096 90.8828 48.743 88.8771 47.302 86.5911C45.8291 84.2542 44.2613 81.4245 42.6588 78.3579C40.4582 74.147 38.1388 69.3845 35.8699 64.7256C34.844 62.6191 33.8284 60.5337 32.8389 58.5302C29.6078 51.9884 26.6985 46.415 24.4791 43.377C24.3222 43.1621 24.1736 42.9669 24.0336 42.7907C23.4303 45.8619 22.0951 51.7954 20.4277 59.2051C18.4177 68.137 15.925 79.214 13.6496 90.0085C11.471 100.344 9.4797 110.469 8.25411 118.39C7.64031 122.357 7.22732 125.717 7.07291 128.249C6.9955 129.519 6.98699 130.524 7.0377 131.264C7.08455 131.948 7.17069 132.194 7.16468 132.196C7.16427 132.196 7.1634 132.195 7.16206 132.193C8.1784 133.995 10.6481 136.393 14.6659 139.134C18.6259 141.834 23.8257 144.691 29.9318 147.475C42.142 153.041 57.7888 158.229 73.9894 161.276C94.7098 165.174 113.013 165.777 126.187 164.101C132.793 163.262 137.965 161.867 141.481 160.128C145.097 158.339 146.357 156.515 146.511 155.094C146.827 152.19 148.539 144.405 150.681 134.774C150.872 133.911 151.068 133.031 151.268 132.137C153.316 122.934 155.711 112.172 157.804 101.878C160.107 90.5581 162.02 79.9155 162.716 72.5778C162.995 69.6303 163.057 67.405 162.933 65.9306C160.801 67.6981 158.132 70.5634 155.096 74.0962C153.114 76.4018 151.118 78.8182 149.084 81.2814C147.327 83.4097 145.54 85.5729 143.709 87.7296C139.89 92.2273 136.052 96.4818 132.683 99.2338C131.014 100.596 129.273 101.75 127.562 102.302C125.766 102.881 123.661 102.875 121.941 101.343C121.003 100.508 120.435 99.2092 120.045 98.1007C119.612 96.8721 119.226 95.348 118.872 93.6255C118.161 90.1717 117.523 85.6489 116.918 80.5172C116.185 74.301 115.486 67.0491 114.763 59.5586C114.295 54.7068 113.818 49.7548 113.315 44.9193C112.025 32.5191 110.571 20.8707 108.688 13.1073C107.722 9.13132 106.734 6.58363 105.846 5.40297C105.757 5.28518 105.682 5.1981 105.622 5.13435ZM105.831 4.99805C105.831 4.99865 105.825 5.00167 105.812 5.00531C105.825 4.99928 105.831 4.99745 105.831 4.99805ZM162.648 64.4039C162.648 64.4038 162.65 64.407 162.653 64.4139C162.649 64.4076 162.648 64.4041 162.648 64.4039ZM125.284 97.607C125.29 97.6109 125.285 97.6021 125.27 97.5765C125.214 97.4829 125.024 97.1652 124.765 96.43C124.44 95.508 124.109 94.2332 123.774 92.6112C123.109 89.376 122.491 85.0275 121.889 79.928C121.16 73.7481 120.472 66.6072 119.756 59.1718C119.286 54.3113 118.805 49.3249 118.294 44.399C117.008 32.0366 115.527 20.0619 113.551 11.9209C112.587 7.9446 111.415 4.4697 109.842 2.37979C109.042 1.31617 107.842 0.217184 106.16 0.027941C104.424 -0.167563 102.982 0.69096 101.921 1.72582C100.097 3.50418 98.1371 6.38252 96.1205 9.81986C94.0735 13.3091 91.858 17.5687 89.5495 22.2585C86.3645 28.729 82.9561 36.1151 79.5312 43.5369C77.9991 46.8568 76.4638 50.1839 74.9437 53.4394C69.9954 64.0365 65.216 73.8585 61.1294 80.5166C59.0643 83.8812 57.3004 86.2276 55.902 87.4803C55.3701 87.9568 55.0085 88.1667 54.8111 88.2531C53.9676 87.4632 52.8624 86.0177 51.5336 83.9095C50.1653 81.7387 48.6691 79.0448 47.0928 76.0285C44.9258 71.8817 42.6609 67.2307 40.4086 62.6059C39.3744 60.4822 38.3429 58.364 37.3247 56.3027C34.1424 49.8597 31.0418 43.8666 28.5176 40.4112C27.877 39.5343 27.2136 38.7357 26.5365 38.1134C25.9159 37.543 25.0021 36.8534 23.8527 36.6749C23.2197 36.5766 22.5328 36.638 21.8704 36.9374C21.2247 37.2291 20.7479 37.6807 20.4059 38.1408C19.7671 39 19.445 40.0943 19.2532 41.1351C18.747 43.8797 17.3635 50.0238 15.5823 57.9339C13.5808 66.822 11.0771 77.94 8.75199 88.9707C6.56892 99.3273 4.55455 109.561 3.30742 117.621C2.68485 121.644 2.24473 125.18 2.07636 127.943C1.99239 129.32 1.97211 130.564 2.04358 131.608C2.10831 132.553 2.26496 133.695 2.77423 134.61C4.37387 137.483 7.67203 140.435 11.8507 143.284C16.1101 146.189 21.5759 149.179 27.8599 152.044C40.4303 157.774 56.4625 163.086 73.0665 166.21C94.1665 170.18 113.008 170.837 126.817 169.081C133.704 168.205 139.485 166.711 143.696 164.629C147.807 162.596 151.05 159.665 151.488 155.638C151.764 153.093 153.378 145.707 155.567 135.866C155.759 135.001 155.955 134.119 156.155 133.221C158.202 124.026 160.607 113.221 162.709 102.881C165.013 91.5581 166.976 80.6831 167.7 73.0528C168.054 69.3153 168.146 66.0483 167.692 63.8711C167.49 62.8992 167.038 61.3873 165.721 60.5365C164.052 59.4595 162.352 60.1615 161.379 60.8227C158.448 62.8157 154.91 66.6231 151.304 70.8197C149.364 73.0762 147.262 75.6196 145.155 78.169C143.374 80.3238 141.589 82.4828 139.897 84.4761C136.071 88.9825 132.497 92.9122 129.521 95.3422C128.016 96.571 126.852 97.2581 126.029 97.5235C125.639 97.6491 125.432 97.645 125.358 97.6354C125.325 97.6312 125.311 97.6286 125.284 97.607Z" fill="#E90F5E"/>
</svg>
