<svg width="30" height="30" viewBox="0 0 30 30" fill="none" xmlns="http://www.w3.org/2000/svg">
<path d="M14.9995 7.45752C10.9068 7.45752 7.51562 10.7902 7.51562 14.9414C7.51562 19.0926 10.8483 22.4253 14.9995 22.4253C19.1507 22.4253 22.4834 19.0341 22.4834 14.9414C22.4834 10.8486 19.0922 7.45752 14.9995 7.45752ZM14.9995 19.7357C12.3684 19.7357 10.2051 17.5724 10.2051 14.9414C10.2051 12.3103 12.3684 10.147 14.9995 10.147C17.6305 10.147 19.7939 12.3103 19.7939 14.9414C19.7939 17.5724 17.6305 19.7357 14.9995 19.7357Z" fill="#191919"/>
<path d="M22.7737 8.97804C23.7101 8.97804 24.4693 8.21891 24.4693 7.28248C24.4693 6.34604 23.7101 5.58691 22.7737 5.58691C21.8373 5.58691 21.0781 6.34604 21.0781 7.28248C21.0781 8.21891 21.8373 8.97804 22.7737 8.97804Z" fill="#191919"/>
<path d="M27.1613 2.89718C25.6411 1.31855 23.4778 0.5 21.0222 0.5H8.97782C3.89113 0.5 0.5 3.89113 0.5 8.97782V20.9637C0.5 23.4778 1.31855 25.6411 2.95565 27.2198C4.53427 28.7399 6.63911 29.5 9.03629 29.5H20.9637C23.4778 29.5 25.5827 28.6815 27.1028 27.2198C28.6815 25.6996 29.5 23.5363 29.5 21.0222V8.97782C29.5 6.52218 28.6815 4.41734 27.1613 2.89718ZM26.9274 21.0222C26.9274 22.8347 26.2843 24.2964 25.2319 25.2903C24.1794 26.2843 22.7177 26.8105 20.9637 26.8105H9.03629C7.28226 26.8105 5.82056 26.2843 4.76815 25.2903C3.71573 24.2379 3.18952 22.7762 3.18952 20.9637V8.97782C3.18952 7.22379 3.71573 5.7621 4.76815 4.70968C5.7621 3.71573 7.28226 3.18952 9.03629 3.18952H21.0806C22.8347 3.18952 24.2964 3.71573 25.3488 4.76815C26.3427 5.82056 26.9274 7.28226 26.9274 8.97782V21.0222Z" fill="#191919"/>
</svg>
