<svg width="137" height="96" viewBox="0 0 137 96" fill="none" xmlns="http://www.w3.org/2000/svg">
<path fill-rule="evenodd" clip-rule="evenodd" d="M88.0655 2.58427C79.6208 1.04091 70.0094 3.4337 61.9787 12.6584C53.8971 21.9412 53.0324 29.7498 54.6295 35.7457C56.2515 41.8348 60.4672 46.2749 62.961 48.6445C65.6345 51.1852 66.5182 53.3111 66.6346 55.3848C66.6903 56.3713 66.5681 57.3012 66.4549 58.1388L66.4453 58.2092C66.3327 59.0435 66.2313 59.7945 66.248 60.5874C66.2635 61.3513 66.4292 61.9431 66.7214 62.4269C67.0147 62.9123 67.4785 63.3612 68.2008 63.7703C69.6893 64.6137 72.1145 65.2061 75.832 65.6276C78.5677 65.9372 81.7415 65.8453 85.2451 65.6185C86.044 65.5668 86.8628 65.5077 87.6982 65.4448C87.8682 64.9443 88.0279 64.4143 88.1877 63.8595C88.2832 63.5284 88.3786 63.187 88.4757 62.8392C88.7432 61.8824 89.0237 60.8782 89.3491 59.9176C90.3143 57.0712 92.5347 56.01 94.9257 54.8677C95.109 54.7806 95.2935 54.6924 95.4779 54.6032C98.1284 53.3214 101.417 51.596 105.037 47.2353C109.762 41.5449 111.428 36.0734 111.395 30.9524C111.361 25.799 109.605 20.9055 107.318 16.3994C103.912 9.68723 96.5691 4.13855 88.0655 2.58427ZM90.0081 65.2685C90.0907 64.9976 90.1706 64.7261 90.2484 64.4557C90.354 64.0896 90.4553 63.7268 90.5556 63.3671C90.8178 62.4291 91.0746 61.5104 91.3803 60.6094C92.0457 58.6452 93.4484 57.9689 96.0672 56.7051C96.1793 56.6513 96.2935 56.596 96.4099 56.54C99.1954 55.1929 102.789 53.3046 106.686 48.611C111.714 42.5552 113.576 36.5979 113.539 30.9383C113.502 25.3111 111.588 20.0721 109.23 15.4244C105.503 8.07969 97.574 2.13646 88.4499 0.46887C79.2664 -1.20964 68.893 1.44577 60.3626 11.2445C51.8828 20.9851 50.7499 29.5148 52.5574 36.3005C54.34 42.9931 58.9315 47.778 61.4854 50.2052C63.8597 52.4611 64.4141 54.1 64.4935 55.5058C64.5359 56.2594 64.4447 56.9981 64.3294 57.8506C64.3241 57.8899 64.3187 57.9296 64.3133 57.9694C64.2056 58.7683 64.0833 59.6681 64.1037 60.632C64.1257 61.6958 64.3632 62.6731 64.8871 63.5408C65.4099 64.4068 66.1756 65.0927 67.145 65.6421C69.04 66.7162 71.8443 67.3392 75.5913 67.7639C78.5275 68.0966 81.8616 67.9923 85.3834 67.7639C85.8333 67.7348 86.2853 67.7037 86.7389 67.6714C86.3175 68.4057 85.8333 68.9675 85.2477 69.3545C84.5646 69.8066 83.6488 70.084 82.3276 70.012C80.8868 69.9335 78.8535 69.6077 76.5597 69.2384H76.5564C74.2958 68.8745 71.8159 68.4762 69.5772 68.2816C67.3836 68.0913 65.2318 68.0762 63.716 68.5998C62.9364 68.8686 62.1873 69.3271 61.7567 70.113C61.3181 70.914 61.3272 71.8375 61.6162 72.7788C62.2624 74.8829 64.16 75.8225 66.2008 76.223C68.2539 76.6262 70.7896 76.5606 73.3006 76.3859C74.4009 76.309 75.4819 76.2133 76.5361 76.1198C77.9677 75.9929 79.3506 75.8698 80.6702 75.8053C81.7914 75.751 82.8021 75.743 83.6681 75.8123C84.5453 75.8827 85.2038 76.0273 85.6579 76.2338C87.5454 77.0939 88.1529 79.1931 87.5523 80.8256C87.2622 81.6153 86.7019 82.2459 85.8976 82.5604C85.0906 82.8765 83.8997 82.9254 82.2697 82.2712C81.8134 82.0879 81.3415 81.8965 80.8578 81.7003C77.55 80.359 73.6813 78.7893 70.3236 78.0497C68.403 77.6261 66.5166 77.4406 64.9343 77.8018C63.2752 78.1803 61.9401 79.1716 61.3347 80.9821C60.7964 82.5953 60.8291 84.1032 61.4216 85.4073C62.0093 86.6996 63.0881 87.6651 64.4109 88.322C67.0292 89.6224 70.7944 89.8218 74.6819 88.8977C78.3994 88.0145 81.1377 87.7887 82.6997 88.115C83.482 88.2779 83.7405 88.5306 83.8166 88.6628C83.874 88.7628 83.9748 89.0579 83.6579 89.7707C83.571 89.9653 83.3212 90.2906 82.7839 90.6943C82.2638 91.0845 81.5474 91.4942 80.6477 91.8855C78.8498 92.6671 76.4063 93.3386 73.5473 93.6552C67.8324 94.289 60.5653 93.4961 53.6122 89.4799C50.0518 87.4232 46.9187 85.3665 44.0178 83.4258C43.5568 83.1173 43.1011 82.8114 42.6501 82.5088C40.2725 80.9127 38.0254 79.4043 35.8266 78.0781C30.5715 74.9092 25.4712 72.7046 19.0887 72.631C8.93894 72.5143 2.33291 77.7158 0.220685 80.4843C-0.139161 80.9557 -0.049523 81.6304 0.4209 81.9916C0.891321 82.3523 1.56439 82.262 1.92423 81.7906C3.66363 79.5108 9.65145 74.6727 19.064 74.7813C24.9081 74.8485 29.6244 76.8471 34.7211 79.9209C36.871 81.2175 39.0671 82.6915 41.4453 84.2876C41.899 84.5924 42.3593 84.9015 42.8272 85.2143C45.7378 87.1614 48.9182 89.2504 52.5414 91.3431C59.9551 95.6254 67.6957 96.4672 73.7832 95.7925C76.8256 95.4555 79.4814 94.7368 81.5013 93.8584C82.5099 93.4192 83.3823 92.9316 84.0697 92.415C84.74 91.9113 85.3169 91.32 85.6166 90.647C86.0713 89.624 86.2177 88.5343 85.6751 87.5898C85.1507 86.6765 84.1635 86.2239 83.1367 86.0094C81.0804 85.581 77.9447 85.9126 74.1875 86.8055C70.5998 87.6581 67.3868 87.4001 65.3632 86.3954C64.3653 85.8997 63.708 85.2514 63.3734 84.5155C63.0447 83.7919 62.9701 82.8582 63.3685 81.6653C63.7015 80.6698 64.3675 80.1365 65.4104 79.8983C66.53 79.643 68.0453 79.7489 69.863 80.1494C73.0282 80.8472 76.7066 82.3378 80.0369 83.6877C80.5238 83.8849 81.0032 84.079 81.4723 84.2671C83.4702 85.0692 85.2397 85.1262 86.6773 84.5639C88.118 84 89.0875 82.8673 89.5647 81.5702C90.4993 79.0296 89.5942 75.6656 86.5453 74.2765C85.7652 73.9212 84.8241 73.7481 83.8386 73.669C82.8423 73.5895 81.7286 73.6008 80.5662 73.6577C79.2337 73.7228 77.749 73.854 76.2621 73.9851C75.2084 74.0781 74.1543 74.1711 73.1516 74.241C70.6496 74.4152 68.3633 74.4566 66.6126 74.1125C64.8495 73.7669 63.961 73.1062 63.6661 72.1467C63.4849 71.5559 63.5659 71.2774 63.6366 71.1484C63.7155 71.0043 63.9139 70.8054 64.4141 70.6329C65.4581 70.2722 67.1986 70.234 69.3922 70.4243C71.5397 70.6103 73.9408 70.9952 76.2197 71.3618L76.2942 71.3736C78.5136 71.7306 80.6487 72.0741 82.2112 72.159C83.9094 72.2515 85.2987 71.8972 86.429 71.1495C87.5454 70.4109 88.3143 69.3513 88.8912 68.1961C89.0065 67.9655 89.1154 67.7279 89.2183 67.486C89.3701 67.4741 89.5223 67.4623 89.6741 67.451C91.8993 67.2795 94.1782 67.1037 96.5209 66.9855C104.223 66.5968 112.14 66.8656 119.137 69.984C125.465 72.803 129.411 76.831 131.776 80.1419C132.96 81.7992 133.747 83.2769 134.236 84.3333C134.48 84.8606 134.65 85.2826 134.756 85.567C134.81 85.7094 134.848 85.8175 134.871 85.8874C134.875 85.8997 134.879 85.911 134.882 85.9212C134.888 85.9395 134.893 85.9535 134.896 85.9632L134.901 85.9788L134.902 85.9798V85.9804C135.075 86.5475 135.673 86.8673 136.239 86.6942C136.806 86.5217 137.126 85.9207 136.953 85.353L135.927 85.6659C136.953 85.353 136.953 85.352 136.953 85.352L136.952 85.3503L136.952 85.3471L136.948 85.3374L136.938 85.3057C136.93 85.2799 136.918 85.2439 136.903 85.1977C136.872 85.1063 136.826 84.9757 136.764 84.8101C136.639 84.4789 136.45 84.008 136.182 83.428C135.645 82.2685 134.792 80.6719 133.52 78.8904C130.973 75.3242 126.743 71.0199 120.009 68.0187C112.529 64.6863 104.186 64.4455 96.4131 64.8379C94.25 64.947 92.0934 65.1083 90.0081 65.2685Z" fill="#E90F5E"/>
</svg>
