<svg width="255" height="178" viewBox="0 0 255 178" fill="none" xmlns="http://www.w3.org/2000/svg">
<g clip-path="url(#clip0_159_32)">
<path fill-rule="evenodd" clip-rule="evenodd" d="M163.917 4.79166C148.199 1.93002 130.309 6.36665 115.362 23.4708C100.319 40.6826 98.71 55.161 101.683 66.2785C104.702 77.5686 112.548 85.8013 117.19 90.195C122.166 94.906 123.811 98.8477 124.028 102.693C124.132 104.522 123.904 106.246 123.693 107.799L123.676 107.93C123.466 109.476 123.277 110.869 123.308 112.339C123.337 113.755 123.646 114.853 124.189 115.75C124.735 116.65 125.599 117.482 126.943 118.241C129.714 119.805 134.228 120.903 141.147 121.684C146.239 122.259 152.147 122.088 158.668 121.668C160.155 121.572 161.679 121.462 163.234 121.346C163.55 120.418 163.848 119.435 164.145 118.406C164.323 117.792 164.5 117.159 164.681 116.514C165.179 114.74 165.701 112.878 166.307 111.097C168.103 105.819 172.236 103.852 176.686 101.734C177.028 101.572 177.371 101.409 177.714 101.243C182.648 98.8668 188.769 95.6676 195.507 87.5822C204.301 77.0311 207.403 66.886 207.34 57.3909C207.277 47.8356 204.009 38.7623 199.753 30.4073C193.413 17.9617 179.745 7.67355 163.917 4.79166ZM167.533 121.019C167.687 120.516 167.836 120.013 167.981 119.512C168.177 118.833 168.366 118.16 168.552 117.493C169.04 115.754 169.519 114.05 170.087 112.38C171.326 108.738 173.937 107.484 178.811 105.141C179.02 105.041 179.232 104.938 179.449 104.835C184.634 102.337 191.323 98.8356 198.576 90.1328C207.934 78.9044 211.401 67.8587 211.332 57.3647C211.264 46.931 207.701 37.217 203.311 28.5994C196.374 14.9811 181.616 3.96135 164.633 0.869363C147.54 -2.24288 128.232 2.68069 112.354 20.8492C96.5701 38.9098 94.4615 54.7254 97.8258 67.3072C101.144 79.7164 109.69 88.5885 114.444 93.0887C118.863 97.2715 119.895 100.31 120.043 102.917C120.121 104.314 119.952 105.684 119.737 107.265C119.727 107.337 119.717 107.411 119.707 107.485C119.507 108.966 119.279 110.635 119.317 112.422C119.358 114.394 119.8 116.206 120.775 117.815C121.748 119.421 123.173 120.693 124.978 121.711C128.505 123.703 133.725 124.858 140.699 125.646C146.164 126.263 152.37 126.069 158.925 125.646C159.763 125.592 160.604 125.534 161.448 125.474C160.664 126.836 159.763 127.877 158.673 128.595C157.401 129.433 155.697 129.947 153.237 129.814C150.556 129.668 146.771 129.064 142.502 128.38H142.496C138.288 127.705 133.672 126.966 129.505 126.605C125.422 126.253 121.417 126.225 118.595 127.195C117.144 127.694 115.75 128.544 114.949 130.001C114.132 131.486 114.149 133.199 114.687 134.944C115.89 138.845 119.422 140.588 123.22 141.33C127.042 142.078 131.762 141.956 136.435 141.632C138.483 141.49 140.495 141.312 142.458 141.139C145.122 140.904 147.696 140.675 150.153 140.556C152.239 140.455 154.121 140.44 155.733 140.569C157.365 140.699 158.591 140.967 159.436 141.35C162.949 142.945 164.08 146.837 162.962 149.864C162.422 151.328 161.379 152.498 159.882 153.081C158.38 153.667 156.164 153.757 153.13 152.544C152.28 152.205 151.402 151.85 150.502 151.486C144.345 148.999 137.144 146.089 130.894 144.717C127.319 143.932 123.808 143.588 120.863 144.258C117.775 144.959 115.29 146.797 114.163 150.154C113.161 153.145 113.222 155.941 114.325 158.359C115.419 160.756 117.427 162.546 119.889 163.764C124.762 166.175 131.771 166.545 139.006 164.831C145.926 163.194 151.023 162.775 153.93 163.38C155.386 163.682 155.867 164.15 156.009 164.396C156.116 164.581 156.303 165.128 155.714 166.45C155.552 166.811 155.087 167.414 154.087 168.162C153.119 168.886 151.785 169.645 150.111 170.371C146.764 171.82 142.216 173.065 136.895 173.652C126.257 174.827 112.731 173.357 99.7891 165.911C93.1621 162.097 87.3304 158.284 81.9309 154.685C81.0729 154.113 80.2247 153.546 79.3853 152.985C74.9598 150.026 70.7772 147.229 66.6846 144.77C56.9031 138.894 47.4099 134.807 35.53 134.67C16.6382 134.454 4.34228 144.098 0.410764 149.231C-0.259023 150.105 -0.0921779 151.356 0.783427 152.026C1.65903 152.695 2.91182 152.527 3.5816 151.653C6.81917 147.426 17.9644 138.456 35.4842 138.657C46.3617 138.782 55.1403 142.487 64.6269 148.187C68.6286 150.591 72.7162 153.324 77.1428 156.283C77.9872 156.848 78.8439 157.421 79.7148 158.002C85.1325 161.612 91.0522 165.485 97.7961 169.365C111.595 177.305 126.003 178.866 137.334 177.615C142.997 176.99 147.94 175.658 151.699 174.029C153.577 173.215 155.201 172.311 156.48 171.353C157.728 170.419 158.802 169.323 159.359 168.075C160.206 166.178 160.478 164.157 159.468 162.406C158.492 160.713 156.655 159.873 154.744 159.476C150.916 158.681 145.079 159.296 138.086 160.952C131.408 162.533 125.428 162.054 121.661 160.191C119.804 159.272 118.581 158.07 117.958 156.706C117.346 155.364 117.207 153.633 117.949 151.421C118.569 149.575 119.808 148.586 121.749 148.145C123.833 147.671 126.654 147.868 130.037 148.61C135.928 149.904 142.775 152.668 148.974 155.171C149.88 155.537 150.772 155.896 151.646 156.245C155.364 157.732 158.658 157.838 161.334 156.796C164.015 155.75 165.82 153.65 166.708 151.245C168.448 146.534 166.763 140.297 161.088 137.721C159.636 137.062 157.884 136.741 156.05 136.595C154.196 136.447 152.123 136.468 149.959 136.574C147.479 136.694 144.715 136.938 141.948 137.181C139.986 137.353 138.024 137.526 136.158 137.655C131.501 137.978 127.246 138.055 123.987 137.417C120.705 136.776 119.052 135.551 118.503 133.772C118.165 132.676 118.316 132.16 118.448 131.921C118.594 131.654 118.964 131.285 119.895 130.965C121.838 130.296 125.078 130.226 129.161 130.578C133.158 130.923 137.627 131.637 141.869 132.317L142.008 132.339C146.138 133 150.113 133.637 153.021 133.795C156.182 133.966 158.768 133.309 160.871 131.923C162.949 130.553 164.381 128.589 165.454 126.447C165.669 126.019 165.872 125.579 166.063 125.13C166.346 125.108 166.629 125.086 166.912 125.065C171.053 124.747 175.295 124.422 179.656 124.202C193.991 123.482 208.728 123.98 221.752 129.762C233.529 134.989 240.875 142.457 245.277 148.596C247.48 151.669 248.946 154.409 249.855 156.368C250.31 157.346 250.625 158.128 250.824 158.655C250.924 158.92 250.994 159.12 251.037 159.249C251.045 159.272 251.052 159.293 251.058 159.312C251.069 159.346 251.078 159.372 251.084 159.39L251.093 159.419L251.094 159.421V159.422C251.417 160.473 252.531 161.067 253.584 160.746C254.639 160.426 255.234 159.311 254.913 158.259L253.004 158.839C254.913 158.259 254.912 158.257 254.912 158.257L254.911 158.254L254.91 158.248L254.904 158.23L254.885 158.171C254.87 158.123 254.848 158.056 254.819 157.971C254.761 157.801 254.676 157.559 254.561 157.252C254.329 156.638 253.976 155.765 253.477 154.689C252.478 152.539 250.891 149.579 248.523 146.276C243.783 139.664 235.909 131.683 223.374 126.118C209.452 119.939 193.924 119.493 179.455 120.22C175.429 120.423 171.415 120.722 167.533 121.019Z" fill="#E90F5E"/>
</g>
<defs>
<clipPath id="clip0_159_32">
<rect width="255" height="178" fill="white"/>
</clipPath>
</defs>
</svg>
