<svg width="24" height="25" viewBox="0 0 24 25" fill="none" xmlns="http://www.w3.org/2000/svg">
<path fill-rule="evenodd" clip-rule="evenodd" d="M10.9998 23.5C10.9998 24.0523 11.4475 24.5 11.9998 24.5C12.5521 24.5 12.9998 24.0523 12.9998 23.5L12.9998 13.4993L23 13.4993C23.5523 13.4993 24 13.0516 24 12.4993C24 11.947 23.5523 11.4993 23 11.4993L12.9998 11.4993L12.9998 1.49978C12.9998 0.947494 12.5521 0.499778 11.9998 0.499778C11.4475 0.499778 10.9998 0.947493 10.9998 1.49978L10.9998 11.4993L0.99978 11.4993C0.447496 11.4993 -0.000220155 11.947 -0.000220203 12.4993C-0.000220252 13.0516 0.447495 13.4993 0.99978 13.4993L10.9998 13.4993L10.9998 23.5Z" fill="#191919"/>
</svg>
