<svg xmlns="http://www.w3.org/2000/svg" width="97" height="140" fill="none">
  <path fill="#E90F5E" fill-rule="evenodd" d="M18.89 59.808Zm.054-.1.03-.05c.084-.139.214-.337.394-.598.358-.518.883-1.239 1.562-2.136 1.357-1.793 3.31-4.263 5.72-7.17 4.82-5.817 11.459-13.368 18.814-20.74 7.362-7.38 15.412-14.551 23.056-19.63.29-.193.578-.382.865-.568 1.108 3.443 4.824 9.711 12.6 12.332 4.053 1.367 7.266 1.67 9.667 1.463a12.221 12.221 0 0 0 2.56-.482c-.673 4.561-1.844 9.673-3.398 15.1-5.399 18.85-15.315 41.131-24.36 56.504-.455.087-.964.19-1.522.303-2.882.585-7.068 1.435-11.818 1.579 1.3-2.608 2.458-4.962 3.396-6.891a1.087 1.087 0 0 0-.488-1.448 1.064 1.064 0 0 0-1.431.493 817.604 817.604 0 0 1-3.877 7.854c-5.523-.134-11.467-1.384-16.654-5.114-4.75-3.416-8.065-6.906-10.362-10.331a82.218 82.218 0 0 1 3.59-3.918 1.09 1.09 0 0 0 0-1.53 1.061 1.061 0 0 0-1.513 0 80.995 80.995 0 0 0-3.26 3.534 28.354 28.354 0 0 1-1.956-4.195c-1.928-5.224-1.966-10.167-1.615-14.36Zm77.753-40.17c.258-2.442.358-4.719.274-6.788-.134-3.33-.744-6.224-2.008-8.417-1.29-2.24-3.246-3.708-5.905-4.143-6.304-1.031-13.96 2.233-21.712 7.386-7.01 4.658-14.303 10.999-21.077 17.614-4.144.708-10.364 2-15.72 3.608-2.699.81-5.22 1.713-7.153 2.678-.965.483-1.821.998-2.488 1.55-.65.539-1.225 1.199-1.45 1.996-.358 1.264-.182 2.562.246 3.766.428 1.204 1.132 2.379 1.93 3.452 1.403 1.886 3.182 3.571 4.57 4.693-.41.487-.807.965-1.194 1.431-2.426 2.928-4.399 5.422-5.778 7.245-.69.91-1.235 1.659-1.618 2.214-.19.276-.348.514-.464.705-.057.095-.112.19-.157.28-.031.062-.11.219-.147.405a1.106 1.106 0 0 0-.017.117c-.38 4.384-.39 9.764 1.727 15.495a30.688 30.688 0 0 0 2.48 5.162C15.518 86.539 7.894 96.937 2.59 108.4c-1.111 2.4-1.838 4.26-2.23 5.659-.195.698-.316 1.316-.35 1.849-.033.516.008 1.059.24 1.529.264.532.722.87 1.273.978.486.096.974.002 1.387-.132.831-.27 1.8-.852 2.792-1.55 2.013-1.417 4.482-3.577 6.797-5.638l.984-.878c1.407-1.256 2.724-2.431 3.834-3.359-.95 2.054-2.624 5.111-4.545 8.591l-.392.71c-1.968 3.564-4.13 7.481-5.932 11.063-1.902 3.783-3.474 7.329-3.94 9.726-.063.327-.1.664-.072.981.027.305.13.737.485 1.069.381.356.844.405 1.182.366.322-.038.622-.162.872-.29.96-.495 2.298-1.68 3.804-3.171 3.079-3.05 7.345-7.887 11.663-12.788l.135-.153c4.294-4.873 8.635-9.799 11.987-13.192 1.705-1.725 3.1-2.997 4.075-3.669.112-.077.214-.144.307-.2.002.48-.057 1.129-.191 1.952-.203 1.24-.553 2.739-.995 4.388-.785 2.936-1.84 6.268-2.81 9.338l-.001.001-.354 1.12c-1.043 3.302-1.968 6.291-2.183 7.833-.05.357-.094.824.014 1.223.057.208.213.605.642.831.449.236.876.122 1.101.024.402-.173.755-.541 1.031-.86a18.1 18.1 0 0 0 1.118-1.488c4.174-6.061 11.984-21.058 17.705-32.465.3-.002.597-.007.893-.014 5.067-.126 9.602-1.049 12.522-1.643h.003a77.053 77.053 0 0 1 1.865-.366 1.07 1.07 0 0 0 .735-.51c2.613-4.413 5.302-9.404 7.937-14.728 2.598.785 6.272 1.617 9.46 1.716 1.696.052 3.37-.097 4.69-.657 1.38-.587 2.442-1.671 2.588-3.389.14-1.648-.036-4.148-.357-6.905-.324-2.784-.808-5.917-1.317-8.875a266.55 266.55 0 0 0-1.478-7.866 135.418 135.418 0 0 0-.553-2.598c-.073-.326-.137-.599-.19-.807a5.886 5.886 0 0 0-.126-.45c1.57-4.383 2.98-8.711 4.174-12.876 1.737-6.068 3.026-11.828 3.67-16.929a1.09 1.09 0 0 0 .158-1.362Zm-69.103 25.75c4.425-5.2 9.943-11.346 15.957-17.402-3.76.731-8.34 1.769-12.393 2.985-2.654.797-5.04 1.659-6.815 2.545-.888.443-1.586.875-2.08 1.284-.509.422-.698.736-.75.916-.195.693-.128 1.508.203 2.44.332.932.906 1.914 1.628 2.884 1.29 1.736 2.964 3.315 4.25 4.348Zm57.91 34.803c-2.802-.087-6.098-.801-8.561-1.522a289.928 289.928 0 0 0 10.4-24.183l.127.612c.427 2.092.96 4.864 1.464 7.8.506 2.937.983 6.027 1.3 8.757.322 2.755.47 5.06.351 6.468-.062.728-.449 1.223-1.286 1.579-.899.382-2.21.538-3.795.489Zm9.026-60.409c-.595.308-1.594.646-3.06.774-2.065.179-4.984-.07-8.808-1.36-7.445-2.509-10.705-8.752-11.39-11.459 6.627-4.001 12.657-6.095 17.445-5.312 1.987.325 3.409 1.38 4.399 3.098 1.016 1.763 1.591 4.258 1.718 7.415.083 2.058-.026 4.354-.304 6.844ZM22.258 81.874c-5.38 6.454-12.651 16.464-17.731 27.442-1.092 2.36-1.763 4.097-2.108 5.331-.173.618-.254 1.075-.275 1.401a2.35 2.35 0 0 0-.005.21c.035-.009.074-.021.118-.035.51-.166 1.261-.588 2.223-1.265 1.895-1.335 4.273-3.41 6.606-5.487l.971-.866v-.001h.001v-.001c1.956-1.745 3.823-3.412 5.195-4.453.398-.302.835-.588 1.261-.697a1.39 1.39 0 0 1 .981.087c.426.214.613.597.68.889.063.268.047.527.02.719-.028.205-.08.419-.142.629-.124.42-.317.914-.554 1.456-.943 2.153-2.797 5.535-4.86 9.27l-.386.701v.001c-1.973 3.573-4.116 7.454-5.898 10.997-1.704 3.389-3.022 6.361-3.575 8.425.629-.486 1.47-1.246 2.502-2.269 3.015-2.987 7.224-7.757 11.563-12.682l.17-.192v-.001c4.267-4.842 8.64-9.805 12.036-13.242 1.71-1.73 3.227-3.13 4.384-3.928.547-.377 1.165-.729 1.76-.804a1.596 1.596 0 0 1 1.136.259c.388.272.568.668.644 1.009.2.9.102 2.129-.11 3.429-.22 1.343-.59 2.922-1.04 4.6-.8 2.987-1.87 6.369-2.839 9.432l-.354 1.12a184.169 184.169 0 0 0-1.448 4.742c4.098-6.267 11.089-19.663 16.465-30.351-5.524-.267-11.513-1.655-16.828-5.477-4.724-3.397-8.132-6.903-10.563-10.398ZM4.567 137.74v.001-.005.004Zm13.513-32.925v.005-.005Zm38.279-68.99c2.617-.584 5.297-.68 7.468-.353.584.088.987.639.9 1.23-.087.59-.631.998-1.215.91-1.888-.285-4.304-.208-6.692.325-2.392.534-4.67 1.505-6.345 2.94-1.65 1.413-2.712 3.27-2.766 5.68-.055 2.452.93 5.624 3.708 9.626 3.163 4.559 8.632 6.152 13.795 4.669 5.143-1.477 10.016-6.038 11.75-13.89.42-1.898-.011-3.148-.857-4.041-.908-.959-2.423-1.643-4.404-2.046-3.948-.803-9.156-.377-13.005.396a1.07 1.07 0 0 1-1.258-.85 1.08 1.08 0 0 1 .841-1.271c3.98-.8 9.504-1.279 13.844-.395 2.163.44 4.18 1.248 5.527 2.67 1.408 1.487 1.952 3.507 1.4 6.008-1.893 8.567-7.298 13.789-13.253 15.5-5.934 1.704-12.385-.11-16.13-5.507-2.926-4.216-4.165-7.838-4.096-10.918.07-3.12 1.479-5.531 3.522-7.282 2.019-1.73 4.653-2.818 7.266-3.401Z" clip-rule="evenodd"/>
</svg>
