<svg width="180" height="260" viewBox="0 0 180 260" fill="none" xmlns="http://www.w3.org/2000/svg">
<path fill-rule="evenodd" clip-rule="evenodd" d="M35.0539 111.853C35.0532 111.854 35.0566 111.846 35.0654 111.828C35.0588 111.844 35.0545 111.852 35.0539 111.853ZM35.1537 111.671C35.17 111.644 35.1885 111.613 35.2095 111.579C35.3657 111.323 35.6071 110.958 35.9405 110.48C36.604 109.528 37.5787 108.204 38.8393 106.556C41.3575 103.263 44.9797 98.7267 49.4522 93.3856C58.3978 82.7026 70.7169 68.8333 84.3666 55.2903C98.0274 41.7364 112.965 28.5652 127.151 19.2346C127.688 18.8816 128.223 18.5345 128.756 18.1935C130.813 24.5164 137.707 36.0298 152.138 40.845C159.659 43.3541 165.621 43.9128 170.076 43.5304C171.888 43.3749 173.476 43.0605 174.826 42.6457C173.578 51.0234 171.405 60.4122 168.521 70.3805C158.503 105.003 140.101 145.93 123.317 174.166C122.473 174.325 121.528 174.515 120.492 174.723L120.492 174.723L120.492 174.723C115.144 175.797 107.377 177.358 98.5627 177.622C100.974 172.833 103.123 168.508 104.864 164.964C105.348 163.98 104.942 162.79 103.959 162.306C102.975 161.821 101.786 162.227 101.302 163.212C99.3406 167.205 96.8747 172.161 94.109 177.638C83.8587 177.39 72.8291 175.095 63.2049 168.244C54.3895 161.97 48.2375 155.559 43.9761 149.268C46.587 146.28 48.8637 143.846 50.6368 142.071C51.4118 141.296 51.4118 140.038 50.6368 139.262C49.8619 138.486 48.6054 138.486 47.8304 139.262C46.1862 140.908 44.1271 143.098 41.7794 145.753C40.2846 143.149 39.0939 140.575 38.1512 138.047C34.5725 128.453 34.5027 119.373 35.1537 111.671ZM179.438 37.888C179.917 33.4008 180.101 29.2192 179.946 25.4194C179.698 19.3013 178.566 13.9868 176.221 9.9593C173.825 5.84581 170.197 3.14799 165.263 2.34908C153.565 0.454958 139.359 6.45132 124.971 15.9146C111.962 24.4713 98.4303 36.1177 85.8602 48.2692C78.1698 49.5694 66.6279 51.9421 56.6898 54.895C51.6806 56.3835 47.0033 58.0412 43.4153 59.8148C41.6238 60.7004 40.0357 61.6477 38.7989 62.6622C37.5931 63.6512 36.5247 64.8629 36.1065 66.3279C35.444 68.6488 35.769 71.0339 36.5641 73.2452C37.359 75.4557 38.6651 77.6138 40.1469 79.5857C42.7491 83.0488 46.0501 86.1443 48.6256 88.2051C47.8664 89.1005 47.1277 89.9773 46.4105 90.8337C41.9081 96.2106 38.2482 100.793 35.6879 104.141C34.4093 105.812 33.3958 107.188 32.6857 108.207C32.3323 108.714 32.0406 109.151 31.8255 109.503C31.7188 109.677 31.6172 109.852 31.5329 110.018C31.4751 110.131 31.3292 110.418 31.261 110.76C31.2468 110.831 31.2364 110.903 31.2301 110.976C30.5235 119.028 30.5064 128.909 34.433 139.436C35.5994 142.564 37.1081 145.733 39.0366 148.917C28.7964 160.953 14.6478 180.049 4.80538 201.105C2.74433 205.514 1.3955 208.93 0.669673 211.499C0.307024 212.783 0.0817362 213.917 0.0184962 214.896C-0.042786 215.844 0.0339951 216.84 0.465567 217.704C0.954006 218.682 1.80443 219.302 2.82556 219.501C3.72715 219.677 4.63369 219.504 5.4002 219.258C6.94253 218.762 8.73983 217.694 10.5812 216.411C14.3161 213.808 18.8984 209.84 23.1943 206.055C23.8099 205.512 24.4191 204.974 25.0194 204.444L25.0201 204.443L25.0202 204.443C27.6318 202.136 30.0745 199.977 32.135 198.274C30.3731 202.047 27.2656 207.661 23.7013 214.053L22.9738 215.358C19.322 221.904 15.3094 229.097 11.9659 235.677C8.43512 242.626 5.51787 249.138 4.65544 253.541C4.53747 254.143 4.46878 254.761 4.5209 255.343C4.57126 255.904 4.76063 256.697 5.41972 257.306C6.12795 257.961 6.98694 258.052 7.61455 257.979C8.2109 257.909 8.76868 257.683 9.23169 257.447C11.0142 256.538 13.497 254.361 16.2903 251.622C22.0043 246.019 29.9201 237.135 37.9339 228.134L38.1846 227.852C46.152 218.902 54.2079 209.853 60.4287 203.622C63.592 200.453 66.1789 198.117 67.9898 196.882C68.1974 196.741 68.3873 196.619 68.5597 196.515C68.563 197.397 68.4539 198.59 68.2043 200.101C67.8281 202.379 67.1787 205.133 66.3598 208.161C64.9013 213.553 62.945 219.674 61.1428 225.312L61.142 225.314C60.9203 226.008 60.7008 226.694 60.4849 227.371C58.5509 233.436 56.8343 238.926 56.4339 241.759C56.3412 242.414 56.2596 243.273 56.4612 244.005C56.5668 244.388 56.8556 245.116 57.6524 245.531C58.4843 245.965 59.2778 245.755 59.6958 245.576C60.4413 245.257 61.0959 244.583 61.6082 243.995C62.1945 243.323 62.8837 242.411 63.6833 241.262C71.4291 230.129 85.9209 202.584 96.5375 181.632C97.0936 181.629 97.6461 181.62 98.1945 181.607C107.597 181.375 116.013 179.68 121.431 178.589L121.431 178.589L121.432 178.589L121.432 178.588L121.438 178.587C122.788 178.315 123.952 178.081 124.899 177.916C125.467 177.817 125.965 177.475 126.261 176.98C131.111 168.874 136.099 159.707 140.991 149.928C145.811 151.37 152.628 152.897 158.545 153.079C161.692 153.176 164.8 152.902 167.247 151.872C169.808 150.795 171.78 148.803 172.05 145.649C172.31 142.62 171.984 138.03 171.388 132.965C170.786 127.852 169.888 122.098 168.943 116.664C167.998 111.228 167.002 106.094 166.202 102.215C165.802 100.277 165.45 98.646 165.176 97.4444C165.039 96.8447 164.92 96.3437 164.824 95.9612C164.754 95.6863 164.672 95.3737 164.589 95.1341C167.503 87.0841 170.12 79.135 172.333 71.4856C175.558 60.3396 177.949 49.7597 179.144 40.391C179.834 39.7265 179.943 38.6738 179.438 37.888ZM51.2057 85.1834C59.4175 75.6323 69.6558 64.3433 80.8168 53.2205C73.8396 54.5634 65.3404 56.4686 57.8193 58.7034C52.8947 60.1667 48.4648 61.7494 45.1727 63.3768C43.5242 64.1916 42.229 64.9848 41.3143 65.735C40.3686 66.5107 40.0173 67.0876 39.9227 67.4193C39.5594 68.6918 39.6832 70.1889 40.2985 71.8998C40.9139 73.6116 41.9797 75.4159 43.3187 77.1978C45.7136 80.3849 48.8191 83.2861 51.2057 85.1834ZM158.667 149.109C153.467 148.949 147.352 147.637 142.78 146.314C149.695 132.207 156.355 116.971 162.081 101.894C162.157 102.255 162.235 102.631 162.315 103.019C163.108 106.861 164.095 111.954 165.033 117.345C165.971 122.74 166.856 128.416 167.446 133.43C168.042 138.491 168.317 142.724 168.096 145.31C167.981 146.647 167.263 147.556 165.709 148.21C164.041 148.912 161.608 149.199 158.667 149.109ZM175.417 38.1517C174.313 38.7168 172.459 39.3386 169.737 39.5723C165.906 39.9011 160.49 39.4438 153.393 37.0762C139.578 32.4666 133.529 20.9991 132.256 16.0275C144.555 8.67791 155.745 4.83228 164.629 6.27074C168.317 6.868 170.956 8.8067 172.792 11.96C174.679 15.1993 175.745 19.7818 175.981 25.5811C176.135 29.3605 175.933 33.5777 175.417 38.1517ZM41.3032 152.384C31.3203 164.238 17.8266 182.623 8.40019 202.789C6.37445 207.123 5.12896 210.314 4.48875 212.58C4.16838 213.714 4.01773 214.554 3.97907 215.152C3.9691 215.307 3.96733 215.434 3.97005 215.538C4.0339 215.522 4.10635 215.501 4.18796 215.475C5.136 215.17 6.52899 214.394 8.31364 213.15C11.8307 210.7 16.2433 206.887 20.5718 203.073C21.1748 202.542 21.7768 202.01 22.3743 201.482L22.3748 201.481L22.3758 201.48L22.376 201.48L22.3773 201.479C26.0057 198.272 29.4703 195.211 32.0162 193.3C32.7548 192.745 33.5661 192.22 34.3565 192.019C34.7668 191.915 35.463 191.822 36.1764 192.178C36.967 192.573 37.3138 193.276 37.4398 193.812C37.5558 194.305 37.5246 194.78 37.4758 195.133C37.4236 195.51 37.3279 195.901 37.2124 196.287C36.9816 197.059 36.6234 197.966 36.1834 198.961C34.4343 202.916 30.9925 209.128 27.1669 215.989L26.4488 217.277L26.4483 217.278C22.7872 223.841 18.8104 230.97 15.5034 237.478C12.3413 243.701 9.89587 249.161 8.86941 252.952C10.0374 252.059 11.5972 250.663 13.5129 248.784C19.1076 243.298 26.918 234.536 34.9708 225.491L35.2848 225.138L35.2861 225.137C43.2045 216.242 51.3198 207.126 57.6211 200.814C60.7933 197.636 63.6079 195.064 65.7549 193.599C66.7701 192.907 67.9176 192.26 69.0211 192.121C69.6282 192.045 70.4151 192.101 71.1305 192.597C71.8499 193.097 72.1832 193.825 72.3245 194.451C72.6973 196.104 72.5144 198.361 72.12 200.749C71.7124 203.217 71.0245 206.116 70.1907 209.199C68.7069 214.685 66.7209 220.898 64.923 226.522C64.7006 227.218 64.4811 227.904 64.2658 228.579C63.2119 231.884 62.2765 234.861 61.5787 237.289C69.1825 225.779 82.1556 201.174 92.1316 181.542C81.8821 181.052 70.7676 178.502 60.9048 171.482C52.1382 165.242 45.8147 158.803 41.3032 152.384ZM8.47489 254.996L8.47513 254.998C8.47509 254.998 8.47499 254.998 8.47485 254.997L8.47406 254.99L8.47489 254.996ZM33.5511 194.521C33.5512 194.521 33.5512 194.524 33.5508 194.53C33.5508 194.524 33.551 194.521 33.5511 194.521ZM104.584 67.8021C109.439 66.7298 114.412 66.554 118.442 67.1546C119.526 67.3162 120.273 68.3268 120.112 69.4119C119.951 70.4969 118.941 71.2455 117.857 71.0839C114.354 70.5616 109.87 70.7029 105.439 71.6814C101 72.6615 96.7721 74.4463 93.6659 77.0806C90.6047 79.6767 88.6319 83.0865 88.5318 87.5148C88.4301 92.0177 90.2594 97.8444 95.4131 105.196C101.283 113.569 111.431 116.495 121.013 113.771C130.556 111.057 139.597 102.681 142.817 88.2574C143.595 84.7716 142.795 82.4756 141.226 80.8353C139.541 79.0747 136.729 77.8186 133.053 77.0781C125.728 75.6022 116.064 76.3857 108.92 77.8054C107.845 78.019 106.8 77.3199 106.587 76.2439C106.373 75.1679 107.072 74.1224 108.147 73.9088C115.533 72.4409 125.783 71.5609 133.836 73.1835C137.85 73.9922 141.594 75.4758 144.092 78.0878C146.706 80.82 147.715 84.5292 146.69 89.1236C143.178 104.859 133.148 114.45 122.097 117.592C111.085 120.723 99.1157 117.393 92.1644 107.478C86.7361 99.7347 84.4362 93.0814 84.564 87.425C84.6935 81.6939 87.3088 77.2651 91.1002 74.0496C94.8465 70.8724 99.735 68.8728 104.584 67.8021Z" fill="#E90F5E"/>
</svg>
