<svg width="160" height="88" viewBox="0 0 160 88" fill="none" xmlns="http://www.w3.org/2000/svg">
<g clip-path="url(#clip0_174_2437)">
<path fill-rule="evenodd" clip-rule="evenodd" d="M141.919 14.1939C141.36 11.6464 140.516 8.35578 139.557 5.67477C139.011 4.14488 138.405 2.74801 137.762 1.80197C137.445 1.33647 137.066 0.897991 136.611 0.637214C136.1 0.345089 135.483 0.278978 134.898 0.623121C134.461 0.880765 134.088 1.31237 133.77 1.77344C133.441 2.25074 133.117 2.8395 132.802 3.49768C132.171 4.81517 131.537 6.48815 130.933 8.28006C129.796 11.6522 128.741 15.5249 127.994 18.4228C123.709 19.1791 118.62 20.7512 114.84 22.445C112.881 23.3227 111.195 24.2672 110.163 25.1931C109.658 25.6463 109.206 26.1852 109.042 26.8009C108.954 27.1279 108.948 27.4793 109.063 27.828C109.177 28.1722 109.39 28.4565 109.651 28.686C110.262 29.223 111.227 29.6263 112.283 29.9486C113.37 30.2804 114.675 30.5607 116.065 30.7961C118.436 31.1976 121.108 31.4771 123.478 31.6511C122.288 34.5824 120.815 38.466 119.8 41.7386C119.229 43.5818 118.787 45.2813 118.635 46.5188C118.562 47.1155 118.54 47.7205 118.677 48.1995C118.749 48.4479 118.888 48.754 119.177 48.9772C119.491 49.2203 119.859 49.2711 120.184 49.2182C120.648 49.143 121.174 48.8658 121.671 48.5558C122.201 48.2255 122.816 47.78 123.486 47.2561C124.827 46.2069 126.442 44.8015 128.121 43.2691C131.254 40.4107 134.652 37.0747 137.004 34.6946C140.087 36.7063 144.423 39.3885 148.099 41.3423C150.05 42.3787 151.86 43.2352 153.214 43.667C153.87 43.8764 154.527 44.0229 155.071 43.9747C155.352 43.9498 155.694 43.8655 155.98 43.6198C156.292 43.3527 156.426 42.9911 156.443 42.6378C156.466 42.1374 156.316 41.5775 156.112 41.0385C155.901 40.4788 155.596 39.8499 155.229 39.1811C154.495 37.8423 153.477 36.2764 152.355 34.6737C150.332 31.784 147.933 28.7205 146.154 26.5517C149.677 23.7613 153.619 20.4878 156.344 17.6789C157.782 16.1969 158.957 14.7694 159.517 13.5658C159.794 12.9695 159.982 12.3009 159.847 11.6566C159.696 10.9368 159.191 10.4488 158.518 10.1839L158.201 10.9887L158.518 10.1839C158.057 10.0025 157.493 9.94807 156.924 9.95095C156.337 9.95392 155.665 10.019 154.945 10.1278C153.505 10.3456 151.802 10.7493 150.071 11.2441C147.135 12.0837 144.041 13.2086 141.919 14.1939ZM135.744 2.13425C135.746 2.13549 135.749 2.13682 135.751 2.13825C135.868 2.20532 136.069 2.38842 136.331 2.77433C136.845 3.53111 137.392 4.75641 137.929 6.25685C138.992 9.23354 139.925 13.0363 140.457 15.6348L140.689 16.7654L141.709 16.2257C143.612 15.2186 147.156 13.8769 150.547 12.9072C152.237 12.4238 153.863 12.0409 155.204 11.8381C155.875 11.7367 156.458 11.6831 156.932 11.6807C157.423 11.6782 157.728 11.7317 157.884 11.7935C158.13 11.8903 158.147 11.9746 158.153 12.0072C158.154 12.0086 158.154 12.0099 158.154 12.011C158.176 12.116 158.165 12.3706 157.948 12.8362C157.52 13.7563 156.527 15.0069 155.103 16.4745C152.286 19.3782 148.078 22.8391 144.389 25.741L143.69 26.2909L144.259 26.9743C146.05 29.1243 148.727 32.508 150.938 35.6657C152.045 37.2463 153.022 38.7536 153.712 40.0125C154.058 40.6427 154.322 41.1937 154.494 41.6496C154.587 41.8951 154.644 42.0914 154.677 42.2432C154.465 42.2189 154.157 42.1522 153.74 42.0191C152.543 41.6373 150.847 40.8435 148.911 39.8149C145.059 37.7678 140.441 34.8896 137.361 32.8604L136.766 32.4688L136.268 32.9768C133.93 35.3583 130.286 38.9519 126.955 41.9913C125.288 43.5122 123.711 44.8839 122.42 45.8936C121.773 46.3992 121.212 46.8035 120.756 47.0882C120.578 47.1993 120.429 47.2835 120.307 47.3465C120.308 47.1887 120.321 46.9848 120.352 46.7288C120.484 45.6543 120.886 44.079 121.453 42.251C122.58 38.616 124.295 34.1798 125.533 31.2009L125.999 30.08L124.787 30.0057C122.186 29.8461 119.055 29.548 116.354 29.0906C115.002 28.8618 113.777 28.5961 112.788 28.2942C111.767 27.9828 111.109 27.6648 110.793 27.3869L110.223 28.0355L110.793 27.3869C110.753 27.3512 110.73 27.324 110.719 27.3074C110.713 27.2991 110.71 27.2933 110.708 27.29C110.708 27.2893 110.707 27.2887 110.707 27.2882C110.707 27.2874 110.706 27.2868 110.706 27.2863C110.706 27.2838 110.706 27.2715 110.713 27.247C110.747 27.1213 110.895 26.8606 111.319 26.4806C112.144 25.7402 113.627 24.884 115.547 24.0235C119.359 22.3152 124.588 20.724 128.831 20.0353L129.39 19.9446L129.531 19.3955C130.279 16.4623 131.384 12.3578 132.572 8.83252C133.167 7.06759 133.775 5.47018 134.362 4.24473C134.656 3.63145 134.935 3.13061 135.194 2.7553C135.44 2.39848 135.628 2.21401 135.744 2.13425ZM135.709 2.1183C135.709 2.11829 135.709 2.11835 135.709 2.11851L135.709 2.1183ZM120.346 47.7403C120.346 47.7403 120.345 47.739 120.344 47.7363C120.346 47.7389 120.346 47.7403 120.346 47.7403ZM154.958 42.2459C154.958 42.2459 154.957 42.2462 154.954 42.2468C154.956 42.2463 154.957 42.246 154.958 42.2459Z" fill="white"/>
</g>
<g clip-path="url(#clip1_174_2437)">
<path fill-rule="evenodd" clip-rule="evenodd" d="M67.503 46.3972C66.8488 43.4252 65.8612 39.5861 64.7407 36.4583C64.1013 34.6734 63.3924 33.0437 62.6404 31.94C62.2703 31.3969 61.8269 30.8854 61.2943 30.5811C60.6977 30.2403 59.9759 30.1632 59.2919 30.5647C58.7799 30.8653 58.3437 31.3688 57.9719 31.9067C57.5871 32.4636 57.2088 33.1505 56.8402 33.9184C56.1024 35.4554 55.3607 37.4072 54.6544 39.4978C53.3252 43.432 52.0906 47.9501 51.2175 51.331C46.206 52.2134 40.2542 54.0474 35.8336 56.0235C33.5427 57.0476 31.5716 58.1495 30.3646 59.2297C29.7739 59.7584 29.245 60.3871 29.0528 61.1054C28.9507 61.4869 28.9435 61.897 29.0782 62.3037C29.2113 62.7053 29.4604 63.037 29.7657 63.3047C30.48 63.9312 31.6082 64.4017 32.8433 64.7778C34.1148 65.1649 35.6408 65.4919 37.2662 65.7665C40.0388 66.2349 43.1641 66.561 45.9361 66.764C44.5443 70.1839 42.8217 74.7148 41.6349 78.5328C40.9665 80.6831 40.4492 82.6659 40.2722 84.1097C40.1869 84.8058 40.1613 85.5116 40.3217 86.0705C40.4049 86.3603 40.5682 86.7174 40.9058 86.9778C41.2735 87.2614 41.7032 87.3207 42.0841 87.259C42.6263 87.1712 43.2419 86.8478 43.823 86.4862C44.4422 86.1008 45.1615 85.581 45.9447 84.9699C47.5136 83.7458 49.4018 82.1061 51.366 80.3183C55.0298 76.9836 59.0039 73.0916 61.7541 70.3148C65.3601 72.6618 70.4307 75.791 74.7304 78.0704C77.0111 79.2795 79.1289 80.2787 80.7119 80.7826C81.4796 81.0269 82.248 81.1977 82.8839 81.1415C83.2122 81.1125 83.6124 81.0141 83.9472 80.7275C84.3111 80.4159 84.4687 79.994 84.4879 79.5819C84.5152 78.998 84.3392 78.3448 84.1012 77.7159C83.854 77.063 83.4973 76.3292 83.0686 75.549C82.2104 73.9871 81.0195 72.1602 79.7073 70.2904C77.3414 66.9191 74.5362 63.3449 72.4549 60.8147C76.5756 57.5592 81.1858 53.7402 84.3728 50.4631C86.0543 48.7342 87.4279 47.0687 88.0828 45.6645C88.4072 44.9688 88.6269 44.1888 88.4692 43.4371C88.293 42.5974 87.7018 42.028 86.9148 41.719L86.5443 42.6579L86.9148 41.719C86.3757 41.5073 85.7166 41.4438 85.0501 41.4472C84.3642 41.4506 83.5787 41.5266 82.7368 41.6535C81.0518 41.9076 79.0603 42.3786 77.0366 42.9559C73.6026 43.9354 69.9836 45.2478 67.503 46.3972ZM60.2807 32.3277C60.2833 32.3291 60.2861 32.3307 60.289 32.3324C60.426 32.4106 60.6606 32.6242 60.9673 33.0744C61.5689 33.9574 62.2087 35.3869 62.8358 37.1374C64.0798 40.6102 65.1704 45.0468 65.7931 48.0783L66.064 49.3973L67.2569 48.7677C69.4829 47.5928 73.6268 46.0274 77.5927 44.8961C79.5698 44.3322 81.4707 43.8854 83.0391 43.6489C83.8239 43.5306 84.5054 43.468 85.0604 43.4652C85.6348 43.4623 85.9904 43.5247 86.1738 43.5968C86.4616 43.7098 86.4809 43.8081 86.4883 43.8462C86.4886 43.8477 86.4889 43.8492 86.4892 43.8506C86.5149 43.973 86.5019 44.2701 86.2486 44.8133C85.748 45.8867 84.5861 47.3458 82.921 49.0579C79.6263 52.4456 74.7055 56.4833 70.3909 59.8689L69.5734 60.5104L70.239 61.3077C72.3331 63.816 75.4647 67.7637 78.0501 71.4477C79.3442 73.2917 80.4877 75.0502 81.2947 76.519C81.6987 77.2542 82.0074 77.8971 82.2087 78.4289C82.3172 78.7154 82.3845 78.9444 82.4233 79.1215C82.1753 79.0931 81.8148 79.0153 81.3267 78.86C79.9271 78.4146 77.9435 77.4885 75.6797 76.2884C71.1747 73.9001 65.7735 70.5423 62.1717 68.1749L61.4766 67.7179L60.8934 68.3106C58.1596 71.089 53.8983 75.2817 50.0025 78.8275C48.053 80.6019 46.2082 82.2023 44.6985 83.3803C43.9425 83.9702 43.286 84.4418 42.7523 84.774C42.5441 84.9035 42.37 85.0019 42.2276 85.0753C42.2288 84.8912 42.2435 84.6534 42.2802 84.3546C42.4339 83.101 42.9041 81.2632 43.5671 79.1305C44.8853 74.8897 46.8911 69.7141 48.3392 66.2387L48.8841 64.931L47.4671 64.8443C44.4252 64.6582 40.7627 64.3104 37.604 63.7768C36.0233 63.5098 34.5905 63.1998 33.4338 62.8476C32.2405 62.4843 31.471 62.1133 31.1013 61.7891L30.4344 62.5458L31.1013 61.7891C31.0538 61.7474 31.0276 61.7157 31.014 61.6964C31.0073 61.6867 31.0035 61.6799 31.0015 61.676C31.0011 61.6752 31.0007 61.6745 31.0004 61.6739C31 61.673 30.9997 61.6723 30.9995 61.6718C30.9994 61.6688 30.9996 61.6545 31.0073 61.6259C31.0465 61.4793 31.2202 61.1751 31.7156 60.7318C32.6806 59.868 34.415 58.869 36.6608 57.8651C41.1193 55.8721 47.2337 54.0157 52.1962 53.2123L52.8504 53.1064L53.0142 52.4658C53.8895 49.0438 55.1818 44.2552 56.5714 40.1423C57.2671 38.0832 57.9785 36.2196 58.6647 34.7899C59.0082 34.0744 59.3347 33.4901 59.6373 33.0522C59.9251 32.6359 60.1449 32.4207 60.2807 32.3277ZM60.2395 32.3091C60.2395 32.3091 60.2398 32.3091 60.2405 32.3093L60.2395 32.3091ZM42.2731 85.5348C42.273 85.5348 42.2724 85.5333 42.2712 85.53C42.2726 85.5331 42.2732 85.5347 42.2731 85.5348ZM82.7511 79.1247C82.7516 79.1246 82.7504 79.125 82.7471 79.1257C82.7493 79.125 82.7507 79.1247 82.7511 79.1247Z" fill="white"/>
</g>
<g clip-path="url(#clip2_174_2437)">
<path fill-rule="evenodd" clip-rule="evenodd" d="M22.7847 20.5334C22.4087 18.8685 21.8707 16.8146 21.2638 15.1164C20.8947 14.0836 20.4777 13.1168 20.0245 12.4501C19.803 12.1242 19.5189 11.7877 19.1575 11.5807C18.7412 11.3423 18.2167 11.2818 17.7221 11.5729C17.3744 11.7775 17.0954 12.1081 16.8739 12.4293C16.6413 12.7668 16.4167 13.1768 16.2014 13.6265C15.7702 14.5268 15.3399 15.6634 14.9325 16.8719C14.1885 19.0796 13.4967 21.602 12.9975 23.5309C10.133 24.0547 6.77964 25.0978 4.27158 26.2217C2.94897 26.8144 1.78323 27.4635 1.05584 28.1161C0.703068 28.4326 0.349357 28.8403 0.217459 29.3344C0.146394 29.6006 0.139933 29.8937 0.236804 30.1868C0.332215 30.4755 0.508841 30.7071 0.713846 30.8874L0.713854 30.8874C1.17266 31.2907 1.87116 31.5757 2.58663 31.794C3.33328 32.0219 4.22318 32.2127 5.16337 32.3719C6.63923 32.6218 8.28499 32.8015 9.78382 32.9201C9.01038 34.8451 8.09406 37.2835 7.44986 39.361C7.06504 40.602 6.76122 41.7643 6.65625 42.6226C6.60647 43.0297 6.58473 43.4845 6.69356 43.8645C6.75052 44.0634 6.86877 44.3327 7.12832 44.5334C7.41358 44.754 7.74406 44.7965 8.02436 44.751L7.88721 43.9059L8.02438 44.751C8.39706 44.6905 8.79298 44.4757 9.12819 44.2665C9.49595 44.0371 9.91804 43.731 10.3719 43.376C11.2816 42.6645 12.3726 41.7146 13.5032 40.683C15.5416 38.8231 17.7456 36.6642 19.3196 35.0757C21.3808 36.4145 24.1989 38.1515 26.6032 39.4292C27.916 40.1269 29.1516 40.7127 30.0869 41.0111C30.5342 41.1538 31.0212 41.2678 31.4461 41.2301C31.6674 41.2105 31.9629 41.1422 32.2168 40.9244C32.4956 40.6851 32.6121 40.3631 32.6261 40.0624C32.6445 39.6671 32.5266 39.2467 32.3859 38.8743C32.2375 38.4812 32.0258 38.0458 31.776 37.5901C31.2757 36.6774 30.5848 35.6156 29.8283 34.535C28.5319 32.6832 27.0082 30.7273 25.8309 29.2834C28.1419 27.4468 30.6939 25.3168 32.4802 23.4756C33.4486 22.4774 34.2674 21.4892 34.6653 20.6339C34.8617 20.2118 35.017 19.6946 34.9078 19.1732C34.7828 18.5764 34.3614 18.1827 33.8409 17.9778C33.4813 17.8363 33.06 17.7996 32.6642 17.8016C32.2517 17.8036 31.7858 17.8493 31.2941 17.9236C30.3095 18.0724 29.1526 18.3471 27.9834 18.6814C26.1452 19.207 24.2086 19.8999 22.7847 20.5334ZM18.4416 13.2201C18.4842 13.27 18.5353 13.3361 18.5939 13.4224C18.9185 13.8999 19.2764 14.6951 19.635 15.6985C20.3435 17.6811 20.9669 20.222 21.3234 21.9615L21.555 23.0921L22.5751 22.5523C23.8299 21.8884 26.1901 20.9933 28.4589 20.3445C29.5883 20.0216 30.6678 19.7676 31.5526 19.6339C31.9955 19.5669 32.3724 19.5328 32.6729 19.5313C32.9901 19.5297 33.1518 19.5655 33.2073 19.5873L33.208 19.5855C33.208 19.5855 33.208 19.5856 33.208 19.5856L33.2073 19.5874C33.2074 19.5874 33.2076 19.5874 33.2077 19.5875C33.1972 19.6458 33.1697 19.748 33.097 19.9043C32.831 20.4761 32.1931 21.2874 31.2387 22.2712C29.3603 24.2073 26.5464 26.5226 24.0676 28.4724L23.3686 29.0223L23.9378 29.7057C25.1376 31.1463 26.9317 33.4135 28.4113 35.527C29.1523 36.5855 29.8027 37.5887 30.2592 38.4215C30.466 38.7988 30.6253 39.1273 30.7347 39.4006C30.6962 39.3893 30.6555 39.3769 30.6126 39.3632C29.8341 39.1148 28.7133 38.5917 27.4149 37.9018C24.8376 36.5321 21.7425 34.6035 19.6767 33.2423L19.0823 32.8507L18.5836 33.3587C17.0152 34.9566 14.5707 37.3675 12.3374 39.4052C11.2193 40.4253 10.1654 41.3415 9.30627 42.0135C8.95975 42.2845 8.65353 42.509 8.39359 42.6821C8.49559 41.9915 8.74838 41.0136 9.10198 39.8733C9.85571 37.4427 11.0045 34.4708 11.8349 32.4731L12.3008 31.3522L11.0892 31.2778C9.34734 31.171 7.25374 30.9715 5.45217 30.6664C4.55021 30.5137 3.74008 30.3376 3.09154 30.1396C2.52764 29.9675 2.16185 29.8008 1.95991 29.6666C2.01357 29.5962 2.09463 29.508 2.21099 29.4036C2.73157 28.9365 3.6949 28.3756 4.97891 27.8002C7.51867 26.6621 11.0081 25.6002 13.8345 25.1415L14.3938 25.0507L14.5339 24.5016C15.0364 22.5325 15.7768 19.7828 16.5717 17.4244C16.9699 16.2428 17.3744 15.1818 17.7615 14.3735C17.9553 13.9688 18.1357 13.6467 18.298 13.4112C18.3507 13.3348 18.3987 13.2716 18.4416 13.2201Z" fill="white"/>
</g>
<defs>
<clipPath id="clip0_174_2437">
<rect width="51.0273" height="49.2975" fill="white" transform="translate(108.973)"/>
</clipPath>
<clipPath id="clip1_174_2437">
<rect width="59.6759" height="57.5138" fill="white" transform="translate(28.9727 29.8379)"/>
</clipPath>
<clipPath id="clip2_174_2437">
<rect width="35.0272" height="33.7299" fill="white" transform="translate(0 11.2432)"/>
</clipPath>
</defs>
</svg>
