<svg width="132" height="114" viewBox="0 0 132 114" fill="none" xmlns="http://www.w3.org/2000/svg">
<path fill-rule="evenodd" clip-rule="evenodd" d="M77.4215 2.47221C77.0279 2.1542 76.738 2.1264 76.4112 2.25315C75.8835 2.45783 75.1778 2.97058 74.3097 3.87295C73.4589 4.75741 72.5239 5.93945 71.526 7.3707C69.5309 10.2319 67.3448 14.0004 65.1397 18.1622C60.7325 26.4803 56.3047 36.2644 53.2499 43.2581L52.9637 43.9133H52.2471C41.2948 43.9133 27.5252 45.7717 17.2426 48.503C12.0824 49.8736 7.90467 51.4377 5.40089 53.039C4.13334 53.8497 3.44067 54.5796 3.1754 55.169C3.05304 55.4409 3.02717 55.6692 3.06043 55.877C3.09462 56.0905 3.20399 56.3592 3.47218 56.684C4.30478 57.6923 5.99839 58.8318 8.43669 60.0275C10.838 61.205 13.8322 62.3765 17.1318 63.4982C23.728 65.7408 31.4536 67.7545 37.8944 69.205L39.3923 69.5423L38.5832 70.8439C34.2831 77.761 28.1942 88.1254 23.8929 96.7463C21.7361 101.069 20.059 104.895 19.2679 107.611C18.8646 108.996 18.7348 109.954 18.8008 110.508C18.8168 110.643 18.841 110.722 18.8576 110.763C18.8666 110.764 18.8773 110.764 18.8899 110.764C19.3598 110.764 20.2496 110.535 21.5971 109.972C22.8998 109.427 24.5 108.629 26.3322 107.624C29.9938 105.616 34.507 102.827 39.2862 99.7135C48.8406 93.4899 59.3935 86.0168 66.1937 81.034L66.919 80.5026L67.5816 81.11C74.4494 87.406 84.8246 96.4463 93.6363 103.116C98.0531 106.459 102.025 109.166 104.946 110.644C106.43 111.396 107.518 111.763 108.204 111.813C108.536 111.837 108.654 111.777 108.668 111.768C108.671 111.767 108.67 111.768 108.673 111.763C108.679 111.754 108.701 111.718 108.719 111.63C108.839 111.063 108.801 110.143 108.537 108.846C108.278 107.575 107.826 106.047 107.21 104.316C105.98 100.855 104.134 96.6744 102.008 92.2851C97.7579 83.5112 92.4365 73.9951 88.833 67.9131L88.2606 66.947L89.2451 66.4036C99.6152 60.6797 111.56 53.7457 119.821 47.6182C123.974 44.5381 127.087 41.7394 128.636 39.4631C129.416 38.3186 129.698 37.4515 129.67 36.8362C129.646 36.3182 129.394 35.7999 128.553 35.3021C128.01 34.9806 127.113 34.6982 125.838 34.4986C124.585 34.3023 123.054 34.1987 121.31 34.1798C117.821 34.142 113.565 34.4431 109.13 34.9656C100.246 36.0122 90.7892 37.9289 85.538 39.6973L84.1553 40.163L84.0952 38.7087C83.8182 32.0113 83.0291 22.1288 81.5689 14.2324C80.8358 10.2682 79.9484 6.89037 78.9116 4.67203C78.3883 3.55249 77.8771 2.84028 77.4215 2.47221ZM86.2164 37.1904C85.8899 30.5122 85.105 21.3248 83.7202 13.8366C82.98 9.83365 82.0536 6.23022 80.8944 3.75021C80.3196 2.52058 79.6372 1.45434 78.7985 0.776808C77.8978 0.0492148 76.7925 -0.235744 75.6183 0.219705C74.6449 0.597229 73.6731 1.38318 72.7311 2.36246C71.7718 3.35966 70.7638 4.64224 69.7299 6.12504C67.6612 9.09194 65.4273 12.9493 63.2055 17.1428C58.8953 25.2778 54.5781 34.7772 51.5298 41.734C40.5058 41.8123 26.9179 43.6751 16.6796 46.3947C11.4677 47.7791 7.01946 49.4119 4.21993 51.2024C2.83582 52.0877 1.70751 53.1025 1.17955 54.2756C0.905291 54.885 0.791482 55.5424 0.900119 56.221C1.00783 56.8938 1.32193 57.512 1.78341 58.0709C2.93155 59.4614 4.99073 60.769 7.47141 61.9854C9.98909 63.22 13.08 64.4258 16.4259 65.5633C22.6147 67.6674 29.7537 69.564 35.9208 70.9925C31.6712 77.8953 26.0153 87.5947 21.9343 95.7743C19.7686 100.115 18.0161 104.087 17.1671 107.002C16.7504 108.433 16.5075 109.749 16.6283 110.765C16.6901 111.285 16.8606 111.846 17.2724 112.285C17.7123 112.755 18.2957 112.946 18.8899 112.946C19.8376 112.946 21.0839 112.552 22.4424 111.984C23.8456 111.398 25.5213 110.559 27.3862 109.536C31.1189 107.489 35.6852 104.665 40.4824 101.54C49.7471 95.5054 59.9331 88.3101 66.764 83.3226C73.6502 89.6062 83.7055 98.3382 92.3137 104.854C96.7471 108.21 100.849 111.018 103.956 112.59C105.485 113.364 106.9 113.906 108.046 113.989C108.63 114.031 109.261 113.963 109.808 113.63C110.391 113.275 110.726 112.713 110.86 112.08C111.073 111.067 110.962 109.792 110.681 108.412C110.394 107.004 109.906 105.37 109.272 103.587C108.004 100.018 106.119 95.7561 103.978 91.3361C99.9129 82.9444 94.8859 73.8981 91.2865 67.7695C101.43 62.1492 113 55.397 121.127 49.3689C125.3 46.2736 128.674 43.2914 130.446 40.6887C131.328 39.3938 131.915 38.0468 131.855 36.737C131.791 35.3299 130.998 34.212 129.67 33.426C128.772 32.8941 127.55 32.5582 126.178 32.3432C124.784 32.125 123.141 32.0177 121.333 31.9981C117.718 31.9589 113.36 32.2703 108.873 32.7989C100.625 33.7706 91.8166 35.4913 86.2164 37.1904Z" fill="#E90F5E"/>
</svg>
