<svg width="240" height="210" viewBox="0 0 240 210" fill="none" xmlns="http://www.w3.org/2000/svg">
<path fill-rule="evenodd" clip-rule="evenodd" d="M140.267 4.55408C139.545 3.96827 139.014 3.91705 138.416 4.15055C137.449 4.52759 136.156 5.47212 134.565 7.13439C133.007 8.76365 131.294 10.9411 129.466 13.5776C125.81 18.8482 121.805 25.7902 117.765 33.4566C109.691 48.7796 101.579 66.8029 95.9826 79.6859L95.4582 80.8929H94.1454C74.0801 80.8929 48.8534 84.3163 30.0151 89.3476C20.5613 91.8725 12.9074 94.7536 8.32033 97.7035C5.99811 99.1969 4.72909 100.541 4.24309 101.627C4.01893 102.128 3.97154 102.549 4.03247 102.931C4.0951 103.325 4.29547 103.82 4.78681 104.418C6.31219 106.275 9.415 108.374 13.8821 110.577C18.2814 112.746 23.7671 114.904 29.812 116.97C41.8967 121.101 56.0505 124.811 67.8505 127.483L70.5947 128.104L69.1123 130.502C61.2344 143.244 50.079 162.336 42.1989 178.217C38.2474 186.18 35.1749 193.227 33.7256 198.23C32.9866 200.782 32.7489 202.547 32.8697 203.568C32.8992 203.817 32.9434 203.962 32.9738 204.038C32.9903 204.039 33.0099 204.039 33.033 204.039C33.894 204.039 35.5241 203.616 37.9928 202.579C40.3795 201.577 43.3111 200.106 46.6678 198.255C53.376 194.556 61.6445 189.417 70.4002 183.683C87.9045 172.218 107.238 158.452 119.697 149.273L121.025 148.294L122.239 149.413C134.821 161.011 153.829 177.664 169.973 189.95C178.065 196.109 185.341 201.095 190.693 203.819C193.413 205.203 195.405 205.879 196.663 205.971C197.271 206.015 197.487 205.904 197.512 205.888C197.517 205.886 197.515 205.888 197.521 205.879C197.532 205.863 197.572 205.796 197.605 205.635C197.825 204.589 197.756 202.896 197.272 200.505C196.798 198.165 195.969 195.349 194.841 192.16C192.588 185.785 189.205 178.084 185.31 169.999C177.524 153.836 167.775 136.307 161.173 125.103L160.124 123.323L161.928 122.322C180.927 111.778 202.811 99.0053 217.945 87.7178C225.553 82.0438 231.256 76.8884 234.095 72.6952C235.523 70.5868 236.04 68.9896 235.989 67.8562C235.945 66.9019 235.484 65.9472 233.943 65.0302C232.948 64.4379 231.304 63.9177 228.969 63.55C226.673 63.1884 223.869 62.9976 220.672 62.9628C214.281 62.8931 206.483 63.4479 198.358 64.4104C182.083 66.3382 164.757 69.8691 155.136 73.1267L152.603 73.9844L152.493 71.3055C151.986 58.9681 150.54 40.7636 147.865 26.2175C146.522 18.9151 144.896 12.6928 142.996 8.60638C142.038 6.54406 141.101 5.2321 140.267 4.55408ZM156.379 68.5087C155.781 56.2067 154.343 39.2826 151.806 25.4886C150.45 18.1146 148.753 11.4767 146.629 6.90828C145.576 4.64318 144.326 2.67906 142.789 1.43096C141.139 0.0906589 139.114 -0.434265 136.963 0.40472C135.18 1.10016 133.399 2.54796 131.673 4.3519C129.916 6.18885 128.069 8.55149 126.175 11.283C122.385 16.7483 118.292 23.8539 114.222 31.5789C106.325 46.5645 98.4161 64.0633 92.8313 76.8785C72.6347 77.0227 47.7408 80.4542 28.9836 85.4639C19.4351 88.0141 11.2856 91.022 6.15674 94.3203C3.62096 95.951 1.55383 97.8204 0.586579 99.9813C0.0841205 101.104 -0.124384 102.315 0.0746452 103.565C0.271972 104.804 0.847425 105.943 1.69289 106.973C3.79635 109.534 7.56889 111.943 12.1136 114.184C16.7262 116.458 22.3889 118.679 28.5188 120.775C39.8571 124.65 52.9361 128.144 64.2347 130.776C56.4491 143.491 46.0873 161.359 38.6106 176.426C34.6428 184.423 31.4322 191.739 29.8767 197.109C29.1134 199.745 28.6683 202.169 28.8897 204.041C29.0029 204.998 29.3152 206.032 30.0697 206.841C30.8756 207.706 31.9444 208.058 33.033 208.058C34.7693 208.058 37.0526 207.332 39.5415 206.286C42.1122 205.206 45.1821 203.661 48.5988 201.777C55.4373 198.007 63.803 192.804 72.5919 187.048C89.5652 175.931 108.227 162.676 120.741 153.489C133.357 165.064 151.779 181.149 167.55 193.152C175.672 199.333 183.187 204.506 188.879 207.403C191.681 208.828 194.273 209.826 196.372 209.979C197.443 210.057 198.599 209.932 199.601 209.318C200.669 208.665 201.282 207.63 201.527 206.463C201.919 204.597 201.714 202.248 201.2 199.705C200.675 197.112 199.78 194.103 198.619 190.818C196.295 184.243 192.841 176.393 188.919 168.251C181.472 152.792 172.262 136.128 165.668 124.838C184.252 114.485 205.448 102.047 220.337 90.9428C227.982 85.2409 234.165 79.7472 237.411 74.9529C239.026 72.5674 240.102 70.0863 239.992 67.6734C239.875 65.0815 238.422 63.0222 235.989 61.5742C234.344 60.5944 232.106 59.9756 229.591 59.5796C227.038 59.1776 224.027 58.9799 220.716 58.9439C214.091 58.8717 206.108 59.4452 197.887 60.419C182.776 62.209 166.639 65.3787 156.379 68.5087Z" fill="#E90F5E"/>
</svg>
