<svg width="171" height="120" viewBox="0 0 171 120" fill="none" xmlns="http://www.w3.org/2000/svg">
<path d="M9.65281 56.0239C8.90496 55.6235 8.01861 55.4194 6.98686 55.4194H0V69.7317H3.17836V65.0761H6.97993C8.01169 65.0761 8.89803 64.8798 9.64588 64.4716C10.3937 64.0712 10.9615 63.5059 11.3632 62.7836C11.7579 62.0613 11.9587 61.2134 11.9587 60.2478C11.9587 59.2821 11.7579 58.4342 11.3632 57.7119C10.9685 56.9818 10.3937 56.4243 9.65281 56.0239ZM8.24712 61.6531C7.9009 61.9907 7.4231 62.1556 6.81375 62.1556H3.17836V58.34H6.81375C7.41618 58.34 7.89397 58.5049 8.24712 58.8424C8.59335 59.18 8.76646 59.6511 8.76646 60.2478C8.76646 60.8444 8.59335 61.3155 8.24712 61.6531Z" fill="black"/>
<path d="M21.8398 59.2741C20.9327 58.7873 19.8732 58.5518 18.6614 58.5518C17.4496 58.5518 16.3902 58.7951 15.4831 59.2741C14.5759 59.7608 13.8696 60.4281 13.3641 61.2839C12.8587 62.1396 12.6094 63.1446 12.6094 64.2908C12.6094 65.4213 12.8587 66.4184 13.3641 67.2899C13.8696 68.1535 14.5759 68.8287 15.4831 69.3154C16.3902 69.8022 17.4496 70.0377 18.6614 70.0377C19.8732 70.0377 20.9327 69.7943 21.8398 69.3154C22.7469 68.8287 23.4601 68.1613 23.9656 67.3056C24.478 66.4498 24.7342 65.4527 24.7342 64.3222C24.7342 63.1681 24.478 62.1553 23.9656 61.2996C23.4532 60.4438 22.7538 59.7608 21.8398 59.2741ZM21.2304 65.9317C21.0019 66.387 20.6695 66.7403 20.2402 66.9915C19.8109 67.2428 19.2916 67.3605 18.6822 67.3605C18.0798 67.3605 17.5535 67.2349 17.1173 66.9915C16.681 66.7403 16.3417 66.387 16.1063 65.9317C15.8708 65.4763 15.7531 64.9267 15.7531 64.2908C15.7531 63.6549 15.8708 63.1053 16.1063 62.6421C16.3417 62.1789 16.681 61.8256 17.1173 61.5744C17.5535 61.3231 18.0798 61.2054 18.6822 61.2054C19.2846 61.2054 19.804 61.331 20.2402 61.5744C20.6695 61.8256 21.0019 62.1789 21.2304 62.6421C21.4589 63.1053 21.5767 63.6549 21.5767 64.2908C21.5767 64.9267 21.4589 65.4763 21.2304 65.9317Z" fill="black"/>
<path d="M35.4497 64.5891C35.1034 64.385 34.6811 64.2437 34.1963 64.1573C34.3487 64.1181 34.501 64.0631 34.6326 64.0082C35.2212 63.7648 35.6436 63.4351 35.8998 63.0268C36.156 62.6107 36.2875 62.1711 36.2875 61.7C36.2875 61.0876 36.0798 60.5459 35.6643 60.0748C35.2489 59.6038 34.6672 59.2348 33.9124 58.96C33.1577 58.6852 32.2852 58.5518 31.288 58.5518C30.1524 58.5518 29.1899 58.7245 28.3866 59.0778C27.5834 59.4311 26.9671 59.8943 26.5378 60.4831C26.1085 61.0641 25.8661 61.7157 25.8246 62.4301H28.8229C28.8991 61.9591 29.1414 61.6058 29.55 61.3624C29.9516 61.119 30.4917 61.0013 31.1634 61.0013C31.7658 61.0013 32.2505 61.1033 32.6106 61.3074C32.9707 61.5116 33.1507 61.8021 33.1507 62.1868C33.1507 62.5086 32.9984 62.7677 32.6868 62.9797C32.3752 63.1917 31.8974 63.2937 31.2465 63.2937H29.55V65.28H31.2811C32.022 65.28 32.5552 65.3664 32.8876 65.5391C33.22 65.7118 33.3862 65.9788 33.3862 66.3321C33.3862 66.7639 33.1923 67.0857 32.8045 67.2899C32.4167 67.494 31.8697 67.5961 31.1634 67.5961C30.4225 67.5961 29.8339 67.4626 29.4046 67.2035C28.9752 66.9444 28.7259 66.5676 28.6567 66.0651H25.6445C25.6792 66.8895 25.9284 67.6039 26.3855 68.2006C26.8425 68.7973 27.4795 69.2605 28.2966 69.5745C29.1068 69.8964 30.0693 70.0534 31.1634 70.0534C32.3059 70.0534 33.2823 69.9042 34.0855 69.6059C34.8888 69.3076 35.4981 68.8915 35.9205 68.3654C36.3429 67.8394 36.5507 67.2428 36.5507 66.5833C36.5437 65.6726 36.1837 65.0131 35.4497 64.5891Z" fill="black"/>
<path d="M41.2458 61.5037H46.0445V69.7315H49.1744V58.8579H38.1367V69.7315H41.2458V61.5037Z" fill="black"/>
<path d="M60.9078 59.2741C60.1946 58.7873 59.3705 58.5518 58.4288 58.5518C57.5425 58.5518 56.7392 58.7873 56.0121 59.2662C55.3197 59.7216 54.7519 60.3575 54.2879 61.1504V58.8579H51.1719V72.8797H54.2879V67.4155C54.7519 68.2241 55.3266 68.8679 56.0121 69.3233C56.7254 69.8022 57.5286 70.0377 58.4288 70.0377C59.3705 70.0377 60.2015 69.7943 60.9078 69.3154C61.621 68.8287 62.175 68.1613 62.5835 67.3056C62.9851 66.4498 63.186 65.4449 63.186 64.2987C63.186 63.1524 62.9851 62.1553 62.5835 61.2917C62.1819 60.4281 61.621 59.7608 60.9078 59.2741ZM59.7029 65.8453C59.4882 66.3007 59.1974 66.6539 58.8166 66.913C58.4426 67.1721 58.0064 67.3056 57.5148 67.3056C57.0231 67.3056 56.5522 67.1721 56.1091 66.913C55.6659 66.6539 55.2781 66.2928 54.9458 65.8453C54.6134 65.3978 54.3572 64.8718 54.1771 64.2908C54.3572 63.7098 54.6134 63.1838 54.9458 62.7363C55.2781 62.281 55.6659 61.9277 56.1091 61.6686C56.5522 61.4095 57.0231 61.276 57.5148 61.276C58.0064 61.276 58.4426 61.4095 58.8166 61.6686C59.1905 61.9277 59.4882 62.2888 59.7029 62.7363C59.9176 63.1917 60.0214 63.7098 60.0214 64.2908C60.0214 64.8796 59.9176 65.3978 59.7029 65.8453Z" fill="black"/>
<path d="M73.4832 58.8581L73.2409 61.1585C72.7769 60.3577 72.2022 59.7296 71.5167 59.2743C70.7965 58.7953 69.9933 58.5598 69.0931 58.5598C68.1514 58.5598 67.3204 58.8032 66.6141 59.2821C65.9009 59.7689 65.34 60.4362 64.9384 61.2919C64.5368 62.1477 64.3359 63.1526 64.3359 64.2989C64.3359 65.4451 64.5368 66.4422 64.9384 67.3058C65.34 68.1615 65.9009 68.8367 66.6141 69.3156C67.3273 69.8024 68.1514 70.0379 69.0931 70.0379C69.9933 70.0379 70.7965 69.8024 71.5167 69.3235C72.2022 68.8681 72.7769 68.2243 73.2409 67.4157L73.4902 69.7317H76.7378L76.1492 64.291L76.7378 58.8503H73.4832V58.8581ZM71.4059 66.9132C70.9627 67.1723 70.4919 67.3058 70.0002 67.3058C69.5086 67.3058 69.0723 67.1723 68.6984 66.9132C68.3245 66.6541 68.0267 66.293 67.8121 65.8455C67.5974 65.3901 67.4935 64.872 67.4935 64.291C67.4935 63.71 67.5974 63.184 67.8121 62.7365C68.0267 62.2812 68.3175 61.9279 68.6984 61.6688C69.0723 61.4097 69.5086 61.2762 70.0002 61.2762C70.4919 61.2762 70.9627 61.4097 71.4059 61.6688C71.8491 61.9279 72.2368 62.289 72.5761 62.7365C72.9154 63.1919 73.1647 63.71 73.3309 64.291C73.1647 64.8798 72.9085 65.398 72.5761 65.8455C72.2438 66.3008 71.8491 66.6541 71.4059 66.9132Z" fill="black"/>
<path d="M86.0717 69.7315C87.1173 69.7315 87.9413 69.4567 88.5507 68.8993C89.16 68.3497 89.4647 67.6039 89.4647 66.6775C89.4647 65.7982 89.167 65.1151 88.5645 64.6205C88.2183 64.3379 87.7751 64.1338 87.2558 64.0003C87.5536 63.8668 87.8236 63.702 88.0452 63.5057C88.5922 63.0189 88.8692 62.3751 88.8692 61.59C88.8692 60.75 88.5922 60.0827 88.0452 59.5959C87.4982 59.1091 86.7572 58.8579 85.8432 58.8579H78.2539L78.8286 64.2986L78.2539 69.7393H86.0717V69.7315ZM86.0232 67.1956C85.8224 67.3998 85.5039 67.5018 85.0607 67.5018H81.4392L81.7023 65.1779H84.9153C85.4069 65.1779 85.767 65.2878 85.9955 65.4998C86.2171 65.7196 86.3348 65.9944 86.3348 66.3399C86.3279 66.701 86.224 66.9915 86.0232 67.1956ZM85.4693 61.3859C85.6493 61.5822 85.7393 61.8491 85.7393 62.1789C85.7393 62.5086 85.6424 62.7755 85.4416 62.9718C85.2477 63.1681 84.943 63.2702 84.5414 63.2702H81.6816L81.4392 61.0954H84.6245C85.0053 61.0876 85.2892 61.1896 85.4693 61.3859Z" fill="black"/>
<path d="M49.9473 74.2534H46.6166L41.9841 80.6912V74.2534H38.875V85.127H41.6517L44.6293 81.2172L46.679 85.127H50.2312L46.6166 78.6107L49.9473 74.2534Z" fill="black"/>
<path d="M60.857 74.6698C60.1438 74.183 59.3197 73.9475 58.378 73.9475C57.4917 73.9475 56.6884 74.183 55.9613 74.6619C55.2689 75.1173 54.6942 75.7532 54.2371 76.5462V74.2537H51.1211V88.2755H54.2371V82.8112C54.7011 83.6199 55.2758 84.2637 55.9613 84.719C56.6746 85.1979 57.4778 85.4335 58.378 85.4335C59.3197 85.4335 60.1438 85.1901 60.857 84.7112C61.5702 84.2244 62.1311 83.5571 62.5327 82.7013C62.9344 81.8456 63.1352 80.8406 63.1352 79.6944C63.1352 78.5482 62.9344 77.5511 62.5327 76.6875C62.1242 75.8239 61.5702 75.1566 60.857 74.6698ZM59.6521 81.241C59.4375 81.6964 59.1466 82.0497 58.7658 82.3088C58.3919 82.5679 57.9556 82.7013 57.464 82.7013C56.9723 82.7013 56.5015 82.5679 56.0583 82.3088C55.6151 82.0497 55.2273 81.6886 54.895 81.241C54.5626 80.7857 54.3064 80.2675 54.1263 79.6866C54.3064 79.1056 54.5626 78.5796 54.895 78.1321C55.2273 77.6767 55.6151 77.3234 56.0583 77.0643C56.5015 76.8053 56.9723 76.6718 57.464 76.6718C57.9556 76.6718 58.3919 76.8053 58.7658 77.0643C59.1397 77.3234 59.4375 77.6846 59.6521 78.1321C59.8668 78.5874 59.9707 79.1056 59.9707 79.6866C59.9707 80.2754 59.8668 80.7935 59.6521 81.241Z" fill="black"/>
<path d="M67.7794 81.8453V74.2534H64.7188V85.127H68.6034L73.416 77.3624V85.127H76.4974V74.2534H72.4742L67.7794 81.8453Z" fill="black"/>
<path d="M80.3431 76.7971C80.3847 77.5665 80.4124 78.2574 80.4124 78.8698C80.4124 80.1809 80.2947 81.1152 80.0523 81.6804C79.81 82.2457 79.4083 82.5283 78.8475 82.5283C78.6882 82.5283 78.5151 82.5048 78.3143 82.4655C78.1204 82.4184 77.9196 82.3556 77.7188 82.2614V84.7972C78.0234 85.0014 78.335 85.1427 78.6536 85.2291C78.9721 85.3154 79.3114 85.3547 79.6715 85.3547C80.9248 85.3547 81.8388 84.8836 82.3997 83.9336C82.9606 82.9837 83.2445 81.4606 83.2445 79.3644C83.2445 78.8541 83.2238 78.2888 83.1822 77.6607C83.1684 77.4252 83.1476 77.1661 83.1337 76.907H87.1984V85.127H90.3145V74.2534H80.1493C80.2254 75.1798 80.2947 76.0277 80.3431 76.7971Z" fill="black"/>
<path d="M104.286 74.2539H101.038L100.796 76.5542C100.332 75.7534 99.7569 75.1253 99.0714 74.67C98.3512 74.1911 97.548 73.9556 96.6478 73.9556C95.706 73.9556 94.8751 74.1989 94.1688 74.6779C93.4556 75.1646 92.8947 75.8319 92.4931 76.6877C92.0914 77.5434 91.8906 78.5484 91.8906 79.6946C91.8906 80.8408 92.0914 81.8379 92.4931 82.7015C92.8947 83.5573 93.4556 84.2325 94.1688 84.7114C94.882 85.1981 95.706 85.4337 96.6478 85.4337C97.548 85.4337 98.3512 85.1981 99.0714 84.7192C99.7569 84.2639 100.332 83.6201 100.796 82.8114L101.045 85.1275H104.292L103.704 79.6868L104.286 74.2539ZM98.9606 82.309C98.5174 82.5681 98.0465 82.7015 97.5549 82.7015C97.0632 82.7015 96.627 82.5681 96.2531 82.309C95.8792 82.0499 95.5814 81.6888 95.3667 81.2412C95.1521 80.7859 95.0482 80.2677 95.0482 79.6868C95.0482 79.1058 95.1521 78.5798 95.3667 78.1323C95.5814 77.6769 95.8722 77.3236 96.2531 77.0645C96.627 76.8055 97.0632 76.672 97.5549 76.672C98.0465 76.672 98.5174 76.8055 98.9606 77.0645C99.4038 77.3236 99.7915 77.6848 100.131 78.1323C100.47 78.5876 100.719 79.1058 100.886 79.6868C100.719 80.2756 100.463 80.7937 100.131 81.2412C99.7915 81.6966 99.4038 82.0499 98.9606 82.309Z" fill="black"/>
<path d="M97.9696 65.6726C97.7272 65.6726 97.4848 65.5784 97.2979 65.3821C96.9309 65.0131 93.8702 61.4802 98.4474 50.1748C99.0221 48.7459 101.688 41.3033 97.2771 35.1324C95.5945 32.7771 93.4132 31.4582 91.1073 30.0607C87.5551 27.9095 83.525 25.4679 81.046 18.7475C79.8273 15.4422 79.5018 11.7209 79.211 8.44704C78.9825 5.85623 78.7263 2.92782 77.9923 2.3547C77.9369 2.30759 77.7638 2.18198 77.2721 2.339C75.5202 2.90427 72.9512 5.64425 71.4278 9.766C70.1952 13.1184 68.7549 20.0507 72.9997 28.8045C73.249 29.3149 73.4983 29.8016 73.7475 30.2648C78.3454 34.6614 82.0016 35.5407 84.2521 36.0824C85.3392 36.3415 86.1217 36.5299 86.7033 37.0088C87.4166 37.5898 87.742 38.422 87.5551 39.2463C87.3196 40.3219 86.3086 41.0834 84.8476 41.3033C83.6566 41.4681 77.7361 41.7665 72.2241 31.7644C70.403 29.99 68.4503 27.6897 66.3937 24.722C66.1167 24.3295 65.9228 24.1332 65.8051 24.039C65.6735 24.3531 65.4796 25.1696 65.5766 26.7554C65.7428 29.4248 66.8299 34.1432 69.7175 38.367C72.238 40 74.9178 40.895 76.9259 41.5545C79.1625 42.2925 80.3951 42.7086 80.8106 43.7841C80.9837 44.2395 80.9698 44.7577 80.7621 45.2287C80.4297 45.9746 79.8481 46.4849 79.0656 46.7047C77.0644 47.2543 73.9207 45.6919 72.425 44.4515C70.8462 43.1482 69.5166 41.6644 68.4018 40.1021C67.0446 39.1835 65.722 38.053 64.5448 36.6241C62.9245 34.6692 61.865 33.9548 61.3872 33.7585C61.4288 34.4337 61.865 36.1373 63.6031 39.2699C67.3631 46.0374 75.2571 50.5595 85.27 51.6822C85.817 51.745 86.2117 52.2946 86.1563 52.9148C86.1009 53.535 85.6231 53.9825 85.0692 53.9197C74.44 52.7264 66.0059 47.8274 61.9204 40.4632C59.3791 35.8861 58.7628 32.9891 60.0785 31.8272C61.4357 30.6338 63.5546 32.3375 65.2996 34.2845C63.707 30.1549 63.333 26.2451 63.6931 24.1725C63.9978 22.4531 64.7387 21.9114 65.3065 21.7544C66.179 21.5189 67.0654 22.0449 67.9448 23.3167C68.4641 24.0626 68.9765 24.7692 69.4751 25.4286C67.1138 17.9388 68.4364 12.0114 69.5859 8.88669C71.4278 3.87778 74.5716 0.855168 76.7112 0.164285C77.6253 -0.134051 78.4285 -0.0241367 79.0864 0.478324C80.589 1.63241 80.8452 4.53726 81.1637 8.20365C81.4338 11.3283 81.7454 14.8691 82.8533 17.8603C85.0622 23.8506 88.4414 25.8918 92.0214 28.0587C94.4034 29.5033 96.8616 30.995 98.8005 33.6957C102.789 39.2777 102.152 46.3357 100.234 51.0855C96.2938 60.8207 98.5997 63.6706 98.6274 63.702C99.0359 64.1103 99.0636 64.809 98.6966 65.2722C98.5166 65.547 98.2396 65.6726 97.9696 65.6726ZM73.8376 42.842C75.2432 43.8941 77.5006 44.8205 78.5809 44.53C78.0269 44.2788 77.1267 43.9804 76.3581 43.7213C75.6033 43.4623 74.7447 43.1796 73.8376 42.842ZM78.0823 36.1923C80.6721 38.6496 82.8533 39.05 83.705 39.105C84.6052 39.1599 85.1869 38.9637 85.4708 38.791C85.173 38.6104 84.5221 38.4534 83.8366 38.2885C82.4032 37.943 80.4505 37.472 78.0823 36.1923Z" fill="black"/>
<path d="M141.345 95.8442C137.08 95.8442 131.99 94.9727 127.385 93.2769C116.784 89.3593 111.625 81.7674 111.41 81.4455C111.078 80.9509 111.168 80.2443 111.604 79.8675C112.041 79.4907 112.664 79.5927 112.996 80.0873C113.045 80.158 118.023 87.4515 128.002 91.1415C136.456 94.2661 145.805 94.219 148.505 92.0914C148.865 91.8088 149.059 91.5183 149.066 91.2357C149.094 90.5369 147.771 90.1522 145.444 89.5399C143.963 89.1473 142.107 88.6606 139.981 87.8362C137.495 87.7891 134.885 87.4201 132.198 86.6193C127.607 85.2611 124.609 83.157 122.898 81.6418C120.814 79.789 119.471 77.7163 119.297 76.1147C119.194 75.1177 119.54 74.2698 120.225 73.8458C122.268 72.5818 126.125 75.5416 128.999 78.2423C133.181 82.1757 137.052 84.3033 140.341 85.6065C140.424 85.6065 140.507 85.6065 140.597 85.6065C149.205 85.6065 155.575 81.4691 156.918 79.2159C157.092 78.9254 157.258 78.525 157.154 78.368C156.489 77.363 154.883 77.2139 152.66 77.0098C151.053 76.8606 149.163 76.6879 147.044 76.1383C144.579 76.5858 141.927 76.5308 139.136 75.7065C134.649 74.3797 131.27 71.8752 130.931 69.6142C130.813 68.8369 131.076 68.1146 131.63 67.6985C133.5 66.2775 137.675 68.8055 140.002 70.4385C142.536 72.2207 144.897 73.2256 147.03 73.8144C157.112 71.7418 165.616 60.2872 168.192 52.5069C169.21 49.4294 168.939 47.9534 168.51 47.71C166.246 46.4224 165.103 47.2311 162.354 49.1703C160.083 50.7719 156.967 52.9623 151.78 54.7288C143.852 57.4295 137.454 55.3647 130.681 53.19C127.42 52.1379 124.048 51.0545 120.281 50.395C109.188 48.4637 105.081 54.1713 105.04 54.2263C104.701 54.7131 104.077 54.7994 103.648 54.4147C103.219 54.03 103.143 53.3234 103.482 52.8367C103.676 52.5619 108.357 46.0456 120.578 48.1732C124.47 48.8484 127.905 49.9554 131.222 51.0231C137.987 53.2057 143.831 55.082 151.206 52.5776C156.143 50.8975 159.127 48.8013 161.302 47.2625C164.106 45.2841 166.135 43.863 169.39 45.708C170.387 46.2733 171.792 48.0083 170.04 53.3077C168.628 57.5787 164.882 64.4561 158.975 69.779C157.008 71.5533 154.55 73.3748 151.704 74.6623C152.085 74.7016 152.459 74.733 152.812 74.7722C155.45 75.0156 157.528 75.2119 158.733 77.0254C159.03 77.4729 159.605 78.7134 158.56 80.4799C157.057 83.0157 152.272 86.164 145.874 87.3573C145.881 87.3573 145.881 87.3573 145.888 87.3573C148.817 88.1345 151.136 88.7469 151.04 91.3377C151.012 92.0443 150.749 93.0649 149.627 93.9521C148.007 95.2083 144.974 95.8442 141.345 95.8442ZM121.264 75.7771C121.243 76.9783 124.449 81.9794 132.71 84.4289C133.112 84.5467 133.514 84.6566 133.908 84.7586C131.949 83.526 129.871 81.9558 127.745 79.9539C123.771 76.2168 121.776 75.6751 121.264 75.7771ZM133.001 69.5042C133.451 70.3207 135.335 72.2442 139.642 73.5161C140.279 73.7045 140.916 73.8458 141.546 73.9479C140.708 73.4925 139.843 72.9587 138.963 72.3384C135.556 69.936 133.68 69.4807 133.001 69.5042Z" fill="black"/>
</svg>
